<svg xmlns="http://www.w3.org/2000/svg" width="2757.316" height="2854.122" viewBox="0 0 2757.316 2854.122">
  <defs>
    <style>
      .cls-1 {
        fill-rule: evenodd;
      }
    </style>
  </defs>
  <path id="full_logo_large_1" data-name="full logo large 1" class="cls-1" d="M1738.94,344.445c2.11,0.378,1.96.246,3.05,1.017,10.27,11.091,16.92,25.937,25.44,38.666,18.3,27.327,36.89,55.06,55.96,82.418,49.2,70.573,98.66,142.089,146.51,213.677,18.54,27.729,37.33,55.1,55.96,82.418,5.78,8.465,11.03,25.329,24.42,25.437,10.29-6.434,39.82-6.361,53.93-10.175,30.14-8.146,64.36-11.189,94.62-19.332l22.38-3.053c54.64-14.111,114.46-19.022,168.9-33.578l54.94-9.157c23.66-6.353,49.42-7.615,74.28-14.245,15.98-4.263,35.1-9.517,52.9-10.175l1.02,1.017c-6.65,20.682-6.5,43.134-12.21,65.121-12.87,49.581-17.74,103.929-30.52,153.643-4.31,16.749-3.8,32.036-8.14,48.841-9.22,35.684-13.22,75.215-22.39,110.905q-2.025,14.25-4.07,28.49c-4.78,17.86-7.58,38.89-12.21,56.98q-0.495,6.105-1.01,12.21c-4.18,15.66-9.22,34.39-10.18,51.9,10.13,4.85,18.43,13.28,27.47,19.33,23.78,15.89,47.2,31.65,70.21,47.82,30.5,21.44,61.56,40.4,92.59,61.05,47.77,31.8,94.78,66.72,142.44,98.7,27.8,18.66,54.99,37.58,82.41,55.96,6.48,4.35,27.62,14.41,29.51,21.37-14.41,6.89-26.98,18.54-39.68,27.47-23.22,16.34-47.01,32.25-70.21,47.83-76.42,51.33-151.73,103.71-227.91,154.66q-40.71,27.225-80.37,54.94c-8.03,5.61-24.99,9.68-25.44,22.39,5.23,8.38,3.38,22.06,6.1,32.56,7.55,29.03,9.47,60.3,17.3,90.56,18.71,72.32,25.17,150.49,43.75,222.83,4.7,18.27,5.61,36.88,10.18,53.93,8.1,30.25,8.23,60.37,16.28,90.56,1.57,5.91,7.57,29.07,6.1,32.56-0.34.68-.68,1.36-1.02,2.03-29.1-10.57-64.45-9.89-95.64-18.31-75.04-20.25-158-25.36-232.99-45.79-23.57-6.42-47.7-7-70.21-13.23-31.58-8.73-64.96-9.71-95.64-18.31-4.7-1.32-32.28-5.3-32.56-5.09-9.42,6.68-14.89,20.81-21.36,30.53-14.63,21.98-29.82,43.8-44.77,66.13-53.11,79.32-108.11,158.82-162.79,237.08-19.8,28.33-38.99,57.14-58,85.47-4.18,6.25-12.36,24.57-19.33,26.46-3.58-11.75-14.89-21.91-21.36-31.54-16.59-24.7-33.59-48.92-49.86-73.26-52.5-78.58-106.53-155.79-158.72-234.03-17.86-26.76-36.3-52.93-53.93-79.37-4.59-6.88-13.09-25.77-21.36-27.47-9.39,5.86-30.64,4.87-42.74,8.14-38.04,10.28-78.97,12.29-118.02,22.39-48,12.4-100.38,17.12-148.55,29.5-12.98,3.34-24.51,2.73-37.64,6.11-30.83,7.93-63.73,10.12-95.644,18.31a722.312,722.312,0,0,1-82.413,16.28c-0.339-1.01-.678-2.03-1.017-3.05,6.173-9.41,6.7-39.47,10.174-52.91,7-27.05,10.37-57.45,17.3-84.45l3.052-22.39c13.69-52.97,18.469-111.12,32.558-163.82,5.461-20.42,4.947-39.69,10.175-60.03,7.076-27.53,8.94-56.8,16.279-85.47,4.6-17.98,10.439-39,11.189-59.02-12.106-5.8-22.875-15.87-33.573-23.4-25.333-17.82-51.322-34.32-76.309-51.89-74.641-52.48-151.559-101.44-225.873-153.65-11.65-8.18-23.952-14.21-35.611-22.38-14.445-10.12-29.073-21.75-43.75-31.54-6.758-4.51-26.815-13.5-28.489-21.37,10.742-3.27,19.69-13.45,28.489-19.33,23.715-15.85,47.187-31.64,70.2-47.83,33.829-23.79,68.361-45.15,102.762-68.17,43.263-28.95,85.973-60.52,129.216-89.54,26.73-17.94,52.947-36.3,79.361-53.93,7.779-5.19,29.923-15.87,33.573-23.4,1.44-2.45-3.53-30.69-5.08-36.63-8.454-32.32-11.648-68.44-20.353-100.73-3.036-11.27-2.157-21.3-5.087-32.56-9.254-35.57-12.843-75.433-22.384-110.913-2.636-9.8-1.529-17.645-4.07-27.473-6.57-25.409-9.763-54.078-16.279-79.365q-1.527-11.192-3.053-22.385c-5.7-22.133-7.247-45.91-13.227-69.191a478.6,478.6,0,0,1-10.174-48.84,14.392,14.392,0,0,1,4.07-1.018c10.539,6.592,34.126,5.611,47.82,9.158,28.692,7.431,60.937,10.991,89.537,18.315l28.49,4.07c44.18,11.61,92.94,16.057,137.35,27.473,11.33,2.911,21.06,2.124,32.56,5.087,26.96,6.945,57.57,10.115,84.45,17.3l22.38,3.052a665.068,665.068,0,0,0,82.42,16.28c20.55-33.011,45.52-64.463,67.15-96.663,50.07-74.561,99.63-148.231,149.56-222.834,19.72-29.463,40.06-58.677,60.03-88.523C1722.33,368.387,1732.56,357.519,1738.94,344.445Zm1.02,86.488c-14.69,25.825-34.57,48.971-50.87,73.261-39.54,58.9-77.64,116.93-117.01,176.029-5.92,8.884-14.17,17.607-20.35,26.455-7.67,10.982-12.95,22.327-20.35,33.578-7.16,10.893-20.06,21.6-24.42,34.6h1.02c6.27-4.644,16.24-4.44,24.42-7.123,18.83-6.178,39.04-8.637,60.03-14.245,43.34-11.581,92.54-14.234,146.51-14.245,25.29-.005,53.09-1.741,74.28,3.053,17.28,3.912,33.29,1.057,49.85,5.087q32.55,6.614,65.12,13.228c13.91,4.222,29.82,10.842,44.76,12.21V771.8c-7.22-7.174-11.33-16.948-17.29-25.437-12.77-18.175-24.66-37.484-37.65-55.963-39.58-56.338-79.91-113.687-118.02-170.942-3.39-5.093-4.77-10.227-8.14-15.262-10.1-15.1-22.43-29.564-32.56-44.771C1753.4,450.581,1748.56,436.95,1739.96,430.933ZM970.767,748.4c0.283,17.309,6.325,35,10.175,49.858,2.476,9.555.709,15.651,3.052,25.437,3.376,14.1,6.765,30.419,10.175,43.753,2.925,11.439,1.019,20.266,4.07,31.543,10.5,38.8,15.591,83.419,25.431,122.1l2.04,22.38c6.06,22.65,9.22,49.14,15.26,72.25,2.58,9.85,3.47,35.63,8.14,41.71v-1.01c8.26-9.05,11.74-23,18.32-33.58,17.57-28.31,36.45-55.82,55.95-82.42,11.73-15.99,26.62-29.85,38.67-45.787,4.06-5.371,11.02-9.017,15.26-14.246,19.52-24.095,44.22-45.471,69.19-64.1,4.95-3.7,9.23-9.547,14.24-13.227,36.82-27.05,75.41-54.588,118.02-75.3v-1.017c-13.03-.647-28.09-4.873-39.68-8.14-10.75-3.032-19.42-1.192-30.52-4.07-11.47-2.973-25.73-6.162-37.65-9.158l-15.26-1.017c-39.19-10.21-87.07-13.29-123.11-25.438-10.18-3.431-20.84-1.322-31.54-4.07-28.48-7.317-62.72-12.1-91.57-19.333C996.3,752.227,982.48,752.828,970.767,748.4Zm1540.423,1.017c-19.77,1.968-41.81,7.394-60.03,12.21-15.73,4.158-31.02,2.932-46.81,7.123-22.9,6.082-50.92,12.218-73.25,17.3l-10.18-1.017c-52.33,11.914-110.02,19.371-161.77,32.56-18.99,4.838-37.2,3.843-53.93,10.175v1.018c10.85,1.852,21.11,11.068,29.51,16.28,9.88,6.134,19.81,9.953,29.51,16.28,12.81,8.361,25.23,18.731,37.64,27.473,70.16,49.43,128.71,109.827,178.05,180.1,12.93,18.42,24.44,37.06,36.63,56.98,5.29,8.63,13.27,17.99,16.28,28.49,0.82-1.04.36-.28,1.02-2.03,5.39-8.15,3.26-19.62,6.1-30.53,6.53-25.06,10.11-52.65,16.28-77.33q0.51-7.635,1.02-15.26c10.23-39.414,14.9-83.836,25.44-123.121,3.08-11.5,1.01-20.542,4.07-32.56,2.89-11.362,6.17-25.695,9.15-37.648,2.8-11.22,1.22-19.459,4.07-30.525C2504.43,788.157,2509.59,769.04,2511.19,749.413Zm-796.67,37.648c-6.34,4.183-17.49-.186-26.45,2.035-17.6,4.363-38.76,1.808-56.98,6.105-13.21,3.117-29.45,6.039-41.71,9.158l-14.25,1.017c-18.87,5.414-40.5,12.129-57.99,18.315-13.93,4.925-39.03,9.272-48.84,17.3,18.82,10.565,36.22,24.828,53.92,36.63,5.25,3.5,10.95,4.776,16.28,8.14,15.81,9.972,31.26,22.174,46.81,32.561,25.76,17.21,51.57,32.722,77.32,49.857,17.67,11.757,35.36,22.892,53.93,34.593,8.17,5.15,16.3,15.95,27.47,17.3,5.23-6.94,18.01-11.53,25.44-16.28,18.09-11.592,36.18-25.785,53.92-37.648,4.25-2.843,9.05-3.277,13.23-6.105,39.14-26.506,78.51-52.675,119.04-78.348,20.02-12.681,39.35-28.472,60.03-40.7v-1.018c-12.04-1.6-24.2-9.2-34.6-13.227-23.06-8.946-48.59-13.894-72.23-21.368l-14.25-1.017c-6.65-1.708-15.49-4.453-22.38-6.105h-9.16C1819.42,787.28,1767.47,787.641,1714.52,787.061Zm314.39,59.015c4.53,27.015,9.96,55.968,17.3,81.4,5.11,17.7,6.47,36.482,11.19,52.91l1.02,13.228c2.71,9.605,5.53,22.9,8.14,32.565q1.02,8.64,2.04,17.29c11.14,38.85,17.99,82.69,26.45,123.12,2.46,1.33,2.88,1.83,7.12,2.04,8.14,4.93,20.62,3.27,30.52,6.1,11.94,3.42,27.07,6.63,39.69,10.18q10.68,1.515,21.36,3.05c30.22,8.18,64.22,12.14,94.62,20.35q15.27,2.535,30.53,5.09c30.48,8.56,64.95,17.07,97.67,21.36v-2.03c-5.33-6.38-6.52-16.5-10.17-24.42-2.75-5.95-7.72-13.58-11.19-19.33-4.35-7.2-5.81-15.2-10.18-22.39-17.66-29.05-35.34-58.21-54.94-85.47-13.03-18.12-29.27-34.08-42.73-51.89q-7.635-7.125-15.26-14.25c-5.25-6.93-11.48-15.123-18.32-20.347-1.78-1.359-3.76-1.346-5.09-3.053-4.12-5.315-9.79-12.542-15.26-16.28-4.88-3.337-9.7-4.678-14.24-8.14-2.9-2.208-3.57-6.585-6.11-9.158-6.39-6.479-14.95-10.829-22.38-16.28-8.28-6.075-16.06-14.38-24.42-20.35C2124.42,891.466,2077.51,869.337,2028.91,846.076Zm-576.89,1.018c-6.25,5.5-27.53,12.669-36.63,16.28-4.29,1.706-8.46,5.843-12.21,8.14-4.3,2.635-8.55,2.638-13.22,5.088-5.4,2.829-11.07,8-16.28,11.192-9.73,5.956-18.98,9.3-28.49,15.263-62.27,39.017-127.72,96.489-170.93,154.663-9.95,13.39-23.2,25.65-32.56,39.68-8.98,13.46-15.37,27.06-24.42,40.7a413.878,413.878,0,0,0-34.59,63.09c-4.61,10.5-12.42,19.11-14.25,32.56h2.04c7.1-4.68,18.47-3.54,27.47-6.11,18.74-5.34,40.72-6.38,60.03-12.21,28.65-8.65,62.3-11.92,90.55-20.35q12.21-1.53,24.42-3.05c15.66-4.51,34.05-8.2,49.85-12.21,8.97-2.28,15.15-.74,23.41-3.05,12.54-3.52,26.6-7.99,40.69-9.16,1.25-2.32,1.67-2.29,2.04-6.11,5-8.01,4.4-25.17,7.12-35.61,5.34-20.49,7.57-42.3,13.23-64.1,8.77-33.8,14.28-72.031,23.4-105.823q1.02-9.156,2.03-18.315c7.5-28.483,15.42-59.836,19.34-90.558h-2.04Zm37.65,68.173c-8.06,48.493-17.48,99.113-30.53,144.483q-0.51,8.655-1.01,17.3c-3.76,14.79-9.05,30.44-11.2,46.81h2.04c34.97-28.56,90.28-56.58,137.35-72.25h6.11c17.91-5.35,37.77-11.46,56.98-16.28,8.04-2.02,15.83.9,21.36-3.05-15.02-7.09-27.45-18.61-40.7-27.47-28.13-18.823-56.21-35.4-84.44-53.93-8.82-5.785-17.62-13.483-26.46-19.333-4.71-3.118-9.36-4.128-14.24-7.122C1500.13,921.485,1496.03,916.571,1489.67,915.267Zm501.6,0c-5.18,6.948-14.84,9.526-22.38,14.245-8.34,5.216-16.36,12.932-24.42,18.315-4.24,2.824-8.83,3.377-13.23,6.105-17.51,10.863-34.67,25.286-51.89,36.631-10.21,6.725-20.2,10.537-30.52,17.3-11.5,7.52-21.89,18.17-34.6,24.42v1.02c21.52-.14,44.55,7.37,62.07,13.23,34.89,11.66,65.71,20.83,95.64,36.63,22.44,11.84,41.98,29.41,64.1,40.7v-6.11c-3.49-5.24-2.21-12.14-4.07-19.33-2.88-11.07-6.4-23.78-9.16-34.6v-9.15c-11.61-45.17-19.22-93.036-29.51-139.4h-2.03ZM1731.82,1076.03c-4.29,2.51-14.23.67-20.35,1.02-5.22.3-12.23,2.06-16.28,3.05h-12.21c-29.6,7.1-58.88,9.15-85.46,19.34-135.68,51.97-223.78,141.94-277.77,275.74-5.64,13.99-5.85,28.96-9.15,42.74-3.33,13.85-7.55,29.85-11.2,44.77v15.26c-11.02,46.13.35,123.71,12.21,158.73,2.61,7.7,1.41,13.82,4.07,21.37,6,16.98,13.13,34.91,20.35,51.89,6.76,15.89,17.77,31.48,26.46,45.79,50.55,83.31,114.08,138.49,208.57,178.06,21.83,9.14,45.02,18.96,70.21,25.44,11.05,2.84,22.79,3.74,32.55,6.11l16.28-1.02c3.65,0.82,9.39,3.17,13.23,4.07h44.77c3.11,0.46,9.6,2.03,14.24,1.02,14.1-3.07,29.59-.55,43.75-4.07,14.59-3.63,33.28-4.25,47.82-9.16,3.37-1.14,8.86-4.94,12.21-6.11,7.53-2.63,14.09-1.34,21.37-4.07,97.78-36.6,175.56-97.9,228.93-179.08,16.54-25.17,28.08-52.44,39.68-82.42,4.41-11.41,14.58-28.15,14.24-40.7-0.44-16.17,7.75-29.06,11.19-42.73,1.73-6.87,1.8-12.8,3.05-18.32v-17.3c5.4-22.64,4.09-60.4-1.01-81.4q0.51-11.19,1.01-22.38c-6.79-27.75-10.14-56.57-19.33-82.42-49.41-138.99-149.01-231.95-286.92-282.87-7.42-2.74-13.82-1.43-21.36-4.07-14.62-5.11-35.06-8.26-51.89-12.21h-15.27c-4.78-1.05-12.6-2.02-17.29-3.05C1760.01,1074.3,1743.22,1077.42,1731.82,1076.03Zm-387.65,149.58c-9.02,5.97-24.4,3.5-35.61,7.12-15.56,5.02-33.1,5.57-50.87,10.17-19.81,5.14-43.13,10.26-63.08,15.27h-10.18c-10.91,2.78-24.73,5.88-35.61,9.15-4.72,1.43-11.83.36-14.24,4.07,5.65,4.18,7.36,11.2,11.19,17.3,7.96,12.7,16.84,25.83,25.43,38.67,20.19,30.16,39.77,60.84,60.03,91.57,6.45,9.79,14.83,18.93,20.35,29.51h1.02c0.23-21.3,8.45-44.54,14.25-62.07,3.34-10.12,3.47-18.74,7.12-28.49,13.14-35.1,29.06-68.47,47.82-98.7,6.72-10.83,19.01-21.11,23.4-33.57h-1.02Zm795.65,2.03v2.04c12.44,10.1,18.88,27.67,27.47,41.71,18.96,31.04,34.83,66.53,47.82,103.79,5.98,17.18,8.5,35.65,13.22,52.91,2.07,7.54.81,13.88,3.06,20.35,0.34-.34.68-0.68,1.01-1.02,11.35-11.55,19.32-30.75,28.49-44.77,17.43-26.63,35.21-53.26,52.91-80.38,8.92-13.67,29.2-36.12,33.58-51.89-11.01-1.12-22.41-5.44-32.56-8.14-10-2.66-17.47-1.35-27.47-4.07-11.38-3.1-26.67-6.41-38.67-9.16l-10.17,1.02C2208.43,1243.15,2173.18,1230.5,2139.82,1227.64ZM1060.3,1247.99c-1.13,10.04-7.23,18.41-10.17,26.46-4.85,13.26-9.25,27.27-13.23,39.68-8.48,26.41-12.6,55.93-19.33,83.44-4.79,19.57-2.76,39.81-7.12,59.01V1481c-5.16,21.04-5.28,61.34,0,82.42v24.42c4.26,18.84,2.51,38.78,7.12,58,4.72,19.71,6.84,42.49,13.23,62.07,9.57,29.32,18.69,58.54,29.5,86.48,9.76-7.24,13.53-21.19,20.35-31.54,3-4.55,8.24-8.5,11.19-13.23,3.7-5.91,5.36-11.63,9.16-17.29,31.09-46.33,61.51-93.42,92.59-140.42,11.11-16.81,22.71-33.34,33.57-50.88,3.88-6.25,11.58-12.61,13.23-20.35-7.42-7.58-11.32-18.43-17.3-27.47-7.83-11.83-15.89-22.99-23.4-35.61-3.83-6.46-10.18-12.92-14.24-19.33-23.56-37.22-48.96-73.1-72.24-109.89-12.41-19.63-25.14-38.18-37.65-56.99C1070.48,1263.76,1067.82,1253.07,1060.3,1247.99Zm1361.35,0c-11.93,25.33-33.97,49.99-48.84,73.26-13.43,21.04-24.9,41.37-38.66,62.07-4.05,6.09-10.24,12.2-14.24,18.32-8.96,13.66-15.1,27.31-24.42,40.7-12.4,17.79-24.01,36.81-36.63,54.94-4.83,6.94-14.41,16.6-16.28,25.44,8.49,9.16,13.54,21.79,20.35,32.56,5.69,9,13.66,17.52,19.33,26.45,9.55,15.07,17.6,30.03,27.47,44.78,16.43,24.54,34.62,49.72,50.87,74.27,7.6,11.48,12.74,23.15,20.35,34.6,13.21,19.86,29.63,39.25,40.7,61.05l1.02-1.02c4.58-6.21,5.07-14.59,8.14-22.38,5.35-13.6,11.52-29.54,16.28-43.76,2.42-7.22,1.55-12.92,4.07-20.35,31.84-93.97,32.48-249.12,6.1-349-4.44-16.82-5.17-29.98-10.17-45.79-4.43-13.98-11.43-29.43-16.28-42.74C2427.76,1263.05,2427.7,1253.12,2421.65,1247.99ZM994.169,1286.66c-4.713,4.63-10.54,6.38-16.279,10.17-13.564,8.97-26.448,18.53-40.7,27.48-8.082,5.07-15.473,13-23.4,18.31-24.186,16.19-48,30.65-72.239,46.81-16.381,10.91-32.428,24.79-48.837,35.61-32.9,21.69-64.885,42.27-97.675,64.1-14.39,9.58-28.1,22.4-43.751,30.53,0.339,0.34.679,0.68,1.018,1.01,6.818,9.25,20.766,13.93,30.523,20.35,3.514,2.32,6.681,6.81,10.175,9.16,21.2,14.26,41.869,26.56,63.082,40.7,3.5,2.34,6.671,6.82,10.174,9.16,53.86,35.98,106.589,71.2,160.757,106.84,22.256,14.64,43.156,34.34,67.152,46.8-21.806-62.24-34.577-138.52-34.594-220.8,0-26.94-2.017-57.92,3.053-80.38q0.508-10.17,1.017-20.35c8.391-36.69,9.983-73.92,20.349-107.85C986.027,1317.65,995.7,1290.57,994.169,1286.66Zm1495.651,2.03c1.23,10.88,6.14,21.76,9.16,31.55q7.11,32.04,14.24,64.1c7.69,29.64,4.19,62.82,11.19,93.61v62.07c0.01,37.94-2.37,75.01-10.17,106.84-4.13,16.83-3.61,31.82-8.14,47.82q-7.635,28.485-15.26,56.98h1.01c7.87-9.74,22.94-15.36,33.58-22.39,17.95-11.86,35.62-24.34,53.92-36.63,60.63-40.69,120.42-84.65,181.11-125.15,18.38-12.26,36.05-24.7,53.93-36.63,5.97-3.98,12.31-5.29,16.27-11.19-7.97-3.78-13.66-9.57-20.34-14.25-11.02-7.71-22.36-12.86-33.58-20.35-6.88-4.59-13.44-11.66-20.35-16.28-61.74-41.26-122.4-81.89-184.16-123.12-3.5-2.34-6.67-6.82-10.17-9.15-14.66-9.79-29.16-17.69-43.75-27.48C2508.96,1302.78,2500.16,1294.07,2489.82,1288.69ZM1250.57,1594.96c-3.38,11.16-19.92,29.36-26.46,39.69-20.06,31.66-39.3,62.5-60.03,93.61l-6.1,6.1c-3.21,4.81-3.91,10.35-7.12,15.26-5.02,7.65-12.96,13.86-16.28,23.41h1.01c4.78,3.17,10.98,2.14,17.3,4.07,15.19,4.63,34.43,8.05,49.86,12.21q7.62,0.51,15.26,1.01c15.5,3.99,34.37,8.16,49.85,12.21l15.26,1.02c18.19,4.7,40.12,11.5,60.03,13.23v-1.02c-15.13-15.14-23.09-36.03-34.59-54.94-13.02-21.42-23.55-46.64-33.58-71.23-4.6-11.28-5.08-21.58-9.15-33.58-5.8-17.06-12.78-38.85-13.23-60.03C1251.92,1595.64,1251.24,1595.3,1250.57,1594.96Zm980.82,1.02c-0.61,15.53-5.97,33.1-10.18,45.79-3.11,9.37-2.12,16.52-5.08,25.44-9.47,28.43-21.13,59.66-34.6,85.47-11.63,22.29-29.28,42.05-40.7,64.1h4.07c4.81-2.88,12.35-1.37,18.32-3.05,11.58-3.28,24.98-7.18,36.63-10.18,9.76-2.51,16.82-.55,26.45-3.05,38.68-10.04,82.34-17.58,122.09-26.46v-1.01c-13.33-13.51-22.8-36.56-33.57-52.91-2.97-4.5-8.19-8.72-11.19-13.23-9.65-14.47-16.58-29.61-26.46-43.75-4.76-6.82-11.74-13.44-16.28-20.35C2253.33,1631.26,2241.33,1602.94,2231.39,1595.98ZM1067.43,1809.66c2.33,10.37,8.51,17.85,12.2,26.45,14.33,33.33,32.17,62.14,50.88,90.56,49.68,75.48,111.72,142.9,185.17,194.34,12.61,8.84,25.74,14.82,38.67,23.41,21.14,14.03,42.31,24.42,66.13,36.63,10.06,5.16,20.31,12.3,32.56,15.26v-1.02c-3.75-5.27-2.03-13.1-4.07-20.35-5.82-20.62-7.3-43.12-13.23-65.12-4.67-17.32-8.36-38.59-13.23-55.96-2.71-9.7-1.03-17.96-4.06-27.47-4.87-15.27-5.42-32.28-10.18-48.84-9.18-31.95-14.41-67.4-21.37-100.74-29.17-9.38-60.95-12.67-90.55-20.35-9.44-2.45-17.09-1.36-26.45-4.07-22.26-6.44-46.59-7.87-70.21-14.24C1156.57,1826.51,1112.03,1818.94,1067.43,1809.66Zm1347.1,0c-4,2.49-8.96,1.55-14.25,3.05-11.4,3.23-25.01,6.36-36.62,9.16q-7.125.51-14.25,1.01c-58.58,16.48-119.54,22.38-178.05,38.67-6.45,1.8-11.32.32-18.32,2.03-11.35,2.79-25.68,5.92-36.62,9.16-7.17,2.13-17.18.12-20.35,6.11-4.95,7.51-3.54,18.61-6.11,28.49-4.2,16.2-7.87,35.84-12.21,51.89q-1.02,8.655-2.03,17.3c-6.71,22.15-10.22,48.7-16.28,71.22q-1.02,9.165-2.04,18.32c-5.45,20.19-9.22,45-15.26,65.12q-1.53,11.19-3.05,22.38c-3.8,12.66-8.19,30.18-10.18,43.76h2.04c8.26-7.1,29.62-13.08,40.7-18.32,5.68-2.69,11.98-7.97,17.29-11.19,6.02-3.65,12.45-4.48,18.32-8.14,17.16-10.7,34.82-21.28,51.89-32.56,17.73-11.72,33.11-27.2,49.85-39.68,24.23-18.06,48.76-39.23,67.15-63.09,4.92-6.37,13.47-10.8,18.32-17.3,11-14.74,24.11-27.86,34.59-42.73,12.5-17.73,22.55-35.49,34.6-53.93,13.93-21.34,26.62-43.34,37.64-68.17,4.49-10.11,12.06-20.87,15.26-32.56h-2.03ZM969.75,2291.96c19.569-.87,39.15-6.84,55.96-11.2,11.33-2.93,19.92-1.04,31.54-4.07,11.64-3.03,26.33-6.26,37.65-9.15,11.44-2.93,20.26-1.03,31.54-4.07,39.02-10.52,83.88-15.36,123.11-25.44l16.28-1.02c23.99-6.21,51.79-9.99,76.31-16.28,11.59-2.98,25.43-.76,33.57-7.12-10.42-2.61-19.2-10.18-27.47-15.27-8.25-5.07-16.33-8.11-24.42-13.22-13.57-8.57-26.7-19.35-39.68-28.49q-111.9-78.84-188.23-193.33c-6.68-9.99-14.9-20.25-21.36-30.52-4.84-7.69-7.43-15.59-12.21-23.41-4.69-7.66-11.64-16.03-14.25-25.44h-1.01c-0.29,14.28-5.68,30.88-9.16,43.76q-0.51,7.62-1.02,15.26c-4.45,17.19-7.93,36.64-12.21,53.93q-0.51,7.635-1.02,15.26c-10.89,41.21-16.2,87.76-26.449,129.22-2.43,9.83-.465,16.31-3.052,26.46C984.484,2205.81,974.846,2251.21,969.75,2291.96Zm1464.11-404.97c-2.74,10.97-10.82,20.72-16.28,29.5-13.96,22.5-26.98,43.19-41.72,64.11-49.3,69.99-109.04,128.76-179.07,178.06-6.39,4.51-12.78,10.9-19.33,15.26-13.64,9.09-27.65,15.73-41.71,24.42-8.33,5.16-17.16,12.45-27.47,15.27v1.01c14,0.74,30.06,5.79,42.73,9.16l15.26,1.02c16.84,4.32,37.12,7.74,53.93,12.21l14.24,1.02c39.73,10.26,87.69,13.29,124.13,25.44,10.55,3.51,21.37,1.24,32.56,4.07,11.03,2.78,25.22,6.26,36.62,9.15,11.38,2.89,19.36,1.21,30.53,4.07,16.58,4.26,34.24,9.69,53.92,10.18v-2.04c-5-7.61-3.43-25.35-6.1-35.61-4.81-18.45-8.41-41.36-13.23-60.03-2.31-8.96-.74-14.65-3.05-23.41-13.83-52.3-19.18-109.65-32.56-161.78q-0.51-8.145-1.02-16.28c-4.24-17.26-7.59-37.67-12.21-54.94q-0.51-7.125-1.01-14.25c-2.71-10.53-6.47-22.27-7.13-34.6C2435.22,1887.67,2434.54,1887.33,2433.86,1886.99Zm-987.94,33.57c0.95,19.2,7.88,38.31,12.21,54.95q0.495,7.125,1.01,14.25c7.38,27.16,11.98,59.23,19.33,86.48,3.61,13.35,4.93,44.83,11.2,53.93,6.08-7.3,17.1-11.16,25.43-16.28,10.51-6.46,20.41-15.74,30.53-22.38,3.2-2.1,6.96-1.99,10.17-4.07,15.39-10,30.48-22.48,45.79-32.56,12.24-8.07,24.2-13.49,36.62-21.37,9.7-6.15,17.76-15.07,28.49-20.35v-1.02h-7.12c-6.08-3.61-14.98-1.85-22.38-4.07-18.84-5.66-39.33-8.99-56.98-16.28-24.99-10.31-51.83-19.78-75.29-32.56C1484.19,1947.94,1465.67,1932.66,1445.92,1920.56Zm590.12,2.04c-2.12.38-1.96,0.25-3.06,1.02-11.55,3.79-21.33,16.38-31.54,22.38-30.33,17.84-63.64,30.3-96.65,45.79-4.32,2.02-8.01.33-13.23,2.04-15.27,4.98-33.34,10.63-49.86,15.26-8.12,2.28-19.4-.23-25.43,4.07,17.65,9.97,34.48,23.12,50.87,34.59,22.61,15.83,46.03,28.52,69.19,43.76,4.53,2.98,8.57,8.26,13.22,11.19,11.1,6.97,21.75,13.59,32.56,20.35,2.67,1.66,9.77,6.21,11.19,5.09,6.33-9.49,6.23-37.71,10.18-50.88,3.16-10.54,5.26-24.14,8.14-35.61,2.68-10.68.73-18.03,4.07-27.47,2.14-6.07,5.37-15.15,7.12-22.39v-10.17C2027.45,1963.33,2034.3,1943.12,2036.04,1922.6Zm-297.1,101.75c-3.13,3.79-8.08,4.28-12.21,7.12-9.98,6.88-19.98,16.49-30.52,22.39-4.05,2.26-7.58,2.57-11.19,5.09-37.76,26.29-76.63,51.37-115.99,76.31-10.34,6.55-20.28,15.79-30.53,22.38q-3.555,1.02-7.12,2.04c-11.38,7.14-22.04,17.46-33.57,24.42-9.96,6.01-20.8,10.16-28.49,18.31h1.02c4.61,5.93,13.68,6.17,21.36,9.16,13.64,5.32,29.45,11.81,43.75,16.28,7.66,2.39,12.76,1.51,20.35,4.07,92.51,31.26,247.87,31.86,345.93,6.11l13.23-1.02c21.8-7.03,45.63-13.77,66.13-21.37,7.47-2.76,30.48-7.94,33.58-13.23-20.59-11.59-39.14-27.32-59.01-39.68-44.63-27.77-87.11-56.7-130.24-85.47-18.19-12.14-36.6-24.03-54.94-35.61-8.43-5.32-20.48-9.59-26.45-17.3h-5.09Zm-230.96,245.22c4.48,9.23,11.82,17.29,17.3,25.44,14.13,21.02,29.06,41.35,42.73,62.07,26,39.4,51.15,77.8,77.33,117.01,4.31,6.47,10.99,12.86,15.26,19.33,5.44,8.27,8.66,16.43,14.24,24.42,13.73,19.64,27.02,39.64,40.7,60.04,7.64,11.38,17.92,22.08,24.42,34.59l1.02-1.02c5.21-5.19,7.89-12.15,12.21-18.31,11.38-16.25,22.27-32.98,33.57-49.86,33.82-50.49,68.73-100.59,102.76-151.61,4.33-6.48,10.75-12.9,15.27-19.33,13.45-19.16,24.28-38.92,37.64-58,9.34-13.33,23.86-27.66,29.51-43.75h-1.02c-5.54,4.06-14.15,3.73-21.37,6.1-16.95,5.57-36.97,9.6-54.94,14.25q-8.64,1.02-17.3,2.03c-37.39,9.52-80.97,12.2-126.16,12.21-20.22.01-43.9,1.81-61.05-2.03h-13.22c-11.69-2.63-26.32-2.45-37.65-5.09-17.45-4.07-33.06-2.78-49.85-7.12C1562.13,2283.9,1534.25,2275.84,1507.98,2269.57Zm362.21,918.81H1609.73v-2.04c4.63-6.27,5.85-14.84,9.15-22.38,8.58-19.59,16.58-39.68,25.44-60.03,21.15-48.61,42.99-98.92,64.1-147.54,7.81-17.99,14.87-35.7,22.38-52.91,2.8-6.42,3.34-18.07,11.19-19.33,1.85,8.34,7,16.2,10.18,23.4,8.16,18.51,15.56,37.12,23.4,54.94,22.26,50.62,41,100.94,63.08,151.61,6.76,15.52,13.31,31.62,20.35,47.82C1862.52,3170.03,1868.65,3178.72,1870.19,3188.38ZM810.01,2886.18h3.053c1.962,5.68,6.983,7.97,10.174,12.21,11.522,15.3,25.323,28.69,36.628,43.75,20.086,26.76,43.024,50.56,63.082,77.33,4.6,6.14,11.689,11.16,16.279,17.3,8.324,11.13,18.3,20.72,26.454,31.54,3.33,4.43,5.539,9.13,10.175,12.21V2895.34h46.8v303.22h-1.02c-9.5-14.58-24.229-25.94-34.593-39.69-27.493-36.46-60.032-68.32-87.5-104.8-12.065-16.03-32.359-30.98-41.715-48.84h-1.018v183.15h-46.8v-302.2Zm1800.89,6.11c15.72-.2,30.84.2,43.75,4.07,52.74,15.79,87.37,49.38,105.81,99.71,6.69,18.25,12.27,49.9,6.11,74.28-2.59,10.22-5.08,21.1-9.16,30.52-16.56,38.19-48.48,66.59-87.5,82.42-11.07,4.49-24.18,5.43-36.63,8.14-22.09,4.81-55.05-4.68-68.17-10.17-45.59-19.1-73.75-47.74-89.54-96.67-5.04-15.63-10.2-44.76-5.08-66.13q3.555-13.74,7.12-27.48c16-39.16,44.98-70.89,83.43-87.5,9.66-4.18,20.98-6.52,31.54-9.16C2597.98,2892.97,2606.57,2894.95,2610.9,2892.29Zm-2218.044,2.03h195.35v45.79H512.915v201.46h75.291v45.79H392.856v-45.79h73.257V2940.11H392.856v-45.79Zm854.654,1.02h195.35v45.79h-75.29v247.25h-46.8V2941.13h-73.26v-45.79Zm881.11,191.29v101.75H2080.8V2896.36c7.15-2.37,19.57-1.02,28.49-1.02h60.03c4.59,2.72,27.78,3.01,34.6,5.09,16.42,5,29.54,13.17,41.71,22.38,21.23,16.07,34.1,62.75,22.39,98.7-8.02,24.59-21.56,43.5-43.76,53.93q35.61,56.46,71.23,112.94h-54.95c-3.04-9.94-12.08-18.23-17.29-26.46-10.54-16.63-20.86-32.81-31.54-48.84-3.24-4.85-12.32-24.39-16.28-26.45h-46.81Zm826.17-191.29h195.35v45.79h-75.29v247.25h-46.8V2941.13h-73.26v-45.79Zm-350,42.73c-6.73,4.21-20.88,4.79-28.49,8.14-25.9,11.42-45.83,36.84-54.94,65.12-19.17,59.51,19.61,109.59,57.99,126.17,13.73,5.94,36.85,13.29,58,8.14,59.5-14.46,104.96-77.96,73.26-149.57-11.79-26.61-37.43-47.17-67.16-55.96C2632.63,2936.91,2618.2,2938,2604.79,2938.07Zm-476.17,3.06v100.73c52.79,0.74,84.18,2.14,94.63-40.7,2.63-10.78-1.48-23.28-4.07-29.51C2204.76,2937.04,2176.58,2940.46,2128.62,2941.13Zm-330.67,200.44c-0.94-8.18-5.99-16.11-9.15-22.38-5.42-10.74-8.74-23.11-13.23-33.58-12.92-30.11-23.04-66.4-37.65-97.68h-1.01c-1.69,13.61-11.23,27.89-16.28,39.68-9.5,22.18-15.76,43.83-25.44,66.14-6.63,15.28-15.88,31.07-20.35,47.82h123.11Z" transform="translate(-392.844 -344.438)"/>
</svg>
