<svg xmlns="http://www.w3.org/2000/svg" width="2755" height="2373" viewBox="0 0 2755 2373">
  <defs>
    <style>
      .cls-1 {
        fill-rule: evenodd;
      }
    </style>
  </defs>
  <path id="full_logo_medium_1" data-name="full logo medium 1" class="cls-1" d="M1072.08,2201.57q40.65-212.985,81.32-426c-26.21-15.87-51.31-35.34-76.24-52.87-26.46-18.61-53.43-34.87-80.313-52.87-34.7-23.24-68.93-48.98-103.694-72.19-24.752-16.52-49.187-32.96-73.2-49.82-6.867-4.82-21.157-9.29-24.4-17.28,13.412-6.41,24.611-17.4,36.6-25.42,19.322-12.91,38.279-25.52,56.93-38.63,59.81-42.06,121.433-81.23,180.953-123.02,20.9-14.68,42.24-28.55,63.03-42.71,7.19-4.89,19.92-7.76,20.33-19.31-5.21-7.93-3.44-21.3-6.1-31.52-7.11-27.43-8.87-56.9-16.26-85.41-12.01-46.28-16.52-96.98-28.47-143.35-2.49-9.7-1.54-17.65-4.06-27.453-6.12-23.77-7.84-49.29-14.24-74.22-4.61-18-9.59-38.411-11.18-57.952,16.61,0.768,35.77,6.1,50.83,10.167,26.27,7.1,54.74,8.641,80.31,15.251q11.19,1.524,22.37,3.05c44.05,11.919,93.01,16.047,137.24,27.451,15.08,3.887,28.53,3.215,43.72,7.117,15.08,3.877,31.44,4.964,47.78,9.15,13.26,3.4,28.3,7.593,43.71,8.134Q1620.01,763.451,1741,585l1.02,1.017c7.98,6.516,12.47,18.751,18.3,27.451,13.31,19.888,27.1,39.735,40.66,59.986,40.1,59.89,82.92,118.972,123.01,178.941,15.12,22.619,30.81,44.828,45.75,67.1,4.63,6.909,9.12,21.5,18.3,23.385,7.13-4.449,18.43-2.747,27.45-5.084,20.43-5.294,42.51-6.631,64.04-12.2,74.33-19.225,154.35-25.276,228.74-44.736,24.44-6.393,49.9-8.047,73.19-14.233,4.71-1.251,27.92-4.4,28.47-4.067,0.76,1.091.61,0.961,1.01,3.05-6,9.59-3.92,25.817-7.11,37.618-7.84,29-9.46,60.233-17.28,90.487-10.19,39.373-14.3,82.673-24.4,122-3.87,15.05-3.09,28.68-7.12,43.72-5.89,22.01-7.26,45.88-13.21,69.14-4.71,18.38-10.64,39.23-11.19,59.98,10.57,3.21,19.74,13.48,28.47,19.32,21.65,14.48,42.76,29.42,64.04,43.72,60.88,40.9,120.92,81.34,181.98,122,20.29,13.52,40.33,27.94,60.99,41.69,7.46,4.96,13.87,11.11,22.37,15.25l-1.02,1.02c-6.79,9.15-25.54,17.72-35.58,24.4-26.45,17.61-52.51,36.05-79.3,53.88-81.1,53.99-159.96,112.98-241.95,165.73q40.665,212.46,81.33,424.98a14.137,14.137,0,0,1-4.07,1.02c-9.13-6.01-24.92-4.09-36.59-7.12-29.14-7.56-60.16-9.44-90.48-17.28-34.03-8.81-71.64-12.59-105.73-21.35q-11.175-1.53-22.36-3.05c-23.59-6.34-49.44-7.59-74.22-14.24a787.38,787.38,0,0,0-92.51-18.3c-15.76,27.67-37.27,53.06-54.89,79.3-41.9,62.39-84.6,123.9-126.06,186.06-15.82,23.72-31.61,47.13-47.78,70.16-4.56,6.48-9.04,21.14-17.28,23.38-2.94-9.63-11.9-17.76-17.29-25.42-13.25-18.84-26.03-38.18-38.63-56.93-43.51-64.78-87.93-128.74-131.14-193.18-13.58-20.25-27.32-40.09-40.66-59.98-5.07-7.55-8.45-21.91-20.34-22.37-9.3,5.82-25.19,4.03-36.59,7.12-31.2,8.43-64.39,9.97-96.58,18.3-44.3,11.45-93.03,16.06-137.24,27.45-11.74,3.02-21.9,1.95-33.55,5.08-23.66,6.35-49.29,7.85-74.21,14.23C1101.05,2196.69,1086.39,2200.79,1072.08,2201.57ZM1741,670.4c-1.85,7.016-7.65,11.033-11.18,16.267-10.89,16.144-22.09,31.953-32.53,47.785-28.92,43.824-57.26,86.53-86.41,130.139-13.59,20.326-31.47,39.94-42.7,62.019h4.07c3.99-3,9.7-2.4,15.24-4.066,14.87-4.457,30.97-5.965,47.78-10.168,58.95-14.735,162.69-13.639,220.61,1.017,20.48,5.183,40.01,5.964,57.94,13.217v-3.05c-5.9-4.8-9.02-12.722-13.21-19.317-9.26-14.564-19.65-28.95-29.48-43.719-26.81-40.256-56.8-79.625-83.36-119.971-11.23-17.055-22.5-33.329-33.55-49.819C1749.72,684.029,1746.69,675.9,1741,670.4ZM1134.09,922.548c0.56,12.443,4.39,25.2,7.11,35.584,2.32,8.8.8,15.692,3.05,24.4,4.39,16.931,7.74,38.267,12.2,54.907q1.02,9.645,2.04,19.31c8.04,29.79,10.94,64.51,19.31,94.56,5.15,18.48,5.76,37.27,10.17,54.9,1.58,6.34.37,17.26,5.08,20.33v-2.03c7.54-7.99,11.32-20.01,17.28-29.48,11.18-17.76,24.18-34.92,36.6-51.86,11.31-15.42,26.73-28.01,38.63-42.7,25.86-31.92,59.57-57.49,93.53-81.34,18.66-13.1,37.47-27.338,58.96-37.613v-2.034c-13.41,0-26.68-4.14-37.61-7.117-12.82-3.49-26.32-4.047-37.62-7.117-10.73-2.918-19.38-1.164-30.49-4.066-16.28-4.251-38.17-9.168-54.9-12.2L1269.3,950c-18.18-4.2-41.3-9.182-59.98-14.234l-25.42-3.05C1169.36,928.8,1150.5,923.932,1134.09,922.548Zm1214.84,0c-5.91,3.893-15.44,2.071-23.38,4.066-9.85,2.475-20.63,4.723-30.5,7.117l-18.3,2.034c-51.63,14.562-109.77,18.675-161.64,32.534-22.67,6.058-47.04,4.574-68.11,12.2,1.04,0.818.28,0.361,2.03,1.017,5.5,6.652,16.93,9.539,24.4,14.234,17.59,11.059,35.07,23.289,51.85,35.589,51.14,37.46,94.58,86.06,131.14,138.27,11.1,15.84,29.33,36.63,35.58,55.92h1.02c1.45-15.72,5.6-31.75,9.15-45.75,2.21-8.74.68-15.69,3.05-24.41,5.13-18.86,8.43-42.01,13.21-61q0.51-7.11,1.02-14.23c4.35-16.52,7.88-38.23,12.2-54.9q1.02-9.15,2.03-18.31c5.64-18.891,8.33-42.979,13.22-62.015C2348.35,939.249,2350.54,925.857,2348.93,922.548Zm-630.29,28.467c-4.11,2.406-11.75-.354-17.29,1.017-13.96,3.459-32.9,1.482-47.78,5.084-43.42,10.517-85.41,16.767-121.99,33.551,13.74,13.433,33.51,20.673,49.81,31.523,33.36,22.17,66.96,44.68,100.65,67.1,12.85,8.55,26.27,16.57,39.65,25.42,6.75,4.46,13.37,12.47,22.36,14.23,2.62-2.54,4.59-2.04,8.13-4.07,3.09-1.76,6.18-6.13,9.15-8.13,10.03-6.73,20.38-11.53,30.5-18.3,37.4-25.03,75.26-51.58,112.85-76.25,3.67-2.42,7.55-2.69,11.18-5.09,7.18-4.74,14.08-11.65,21.35-16.27,5.93-3.762,12.13-4.76,16.26-10.163C1888.13,962.967,1812.17,951.315,1718.64,951.015Zm-211.46,49.815c-6.79,5.22-15.52,5.83-23.38,10.17-20,11.06-40.55,22.39-59.98,34.57-67.37,42.22-126.27,104.44-168.76,171.82-6.02,9.56-13.37,19.74-19.31,29.49-5.2,8.53-6.99,17.72-12.2,26.43-4.51,7.55-9.91,15.83-12.2,25.42h1.02c11.83-7.41,35.72-5.89,50.83-10.17,43.2-12.22,91.71-17.87,135.21-29.48,15.61-4.17,30.72-5.37,44.73-9.15,5.95-1.61,12.88.08,15.25-5.09,5.08-8.37,3.43-21.28,6.1-31.51,4.43-17.06,6.23-35.64,11.18-53.89,7-25.8,11.32-55.43,18.3-81.34q1.005-8.64,2.03-17.28c5.22-18.45,10.61-40.18,13.22-59.99h-2.04Zm468.66,0c5.5,31.33,11.77,64.85,20.33,94.56q1.53,11.175,3.05,22.37c4.4,16.22,7.88,35.77,12.2,51.85,6.96,25.95,5.88,55.26,16.26,78.28,13.01,1.23,27.35,5.72,38.64,9.15,16.49,5.03,34.31,5.79,49.81,10.17,17.16,4.86,33.61,4.49,50.83,9.15,35.23,9.54,71.82,15.45,107.76,23.39v-2.04c-6.73-7.41-7.91-19.63-13.22-28.46-14.07-23.44-27.16-47.3-41.68-70.16-8.02-12.63-19.62-23.75-28.46-35.58-38.62-51.68-89.71-91.29-145.38-126.07C2027.25,1025.73,1999.18,1006.37,1975.84,1000.83Zm-430.03,57.96c-0.61,12.38-4.3,24.14-7.11,34.56-4.85,17.98-4.43,33.95-9.15,51.86-4.82,18.27-11.46,40.01-13.22,59.98h1.02c7.28-6.73,16.18-10.36,25.41-15.25,10.76-5.69,21.78-14.69,33.55-19.32,29.82-11.7,60.03-22.14,94.55-29.48v-1.02c-11.72-5.44-21.1-14.72-31.52-21.35-17.05-10.85-33.85-20.35-50.83-31.52C1576.24,1079.18,1560.47,1063.09,1545.81,1058.79Zm392.41,0c-7.51,8.96-28.93,18.43-39.64,25.41-19.05,12.43-37.96,27.19-56.93,39.66-9.04,5.94-21.5,9.41-27.45,18.3,14.53-.07,28.21,5.36,39.65,9.15,24.93,8.27,49.22,13.83,70.14,26.43,14.77,8.9,29.57,19.68,44.73,27.45v-3.05c-4.27-6.47-2.65-18.36-5.08-26.43-7.56-25.11-11.74-54.96-18.3-80.32C1942.45,1084.23,1943.73,1066.96,1938.22,1058.79ZM1734.9,1182.83c-6.72,3.93-20.36.12-28.46,2.03-22.14,5.22-44.68,7.33-64.05,14.23-5.53,1.97-10.3.59-15.25,3.05-23.45,11.64-49.55,20.88-71.16,34.57-67.21,42.6-111.8,103.39-144.36,180.98-4.46,10.64-3.95,19.06-7.11,31.51-13.2,51.94-15.47,124.17,0,176.91,30.96,105.6,98.34,183.52,194.17,224.69,19.32,8.31,39.71,18.42,62.01,24.4,9.74,2.62,18.9,3.07,27.45,5.09l13.21-1.02c2.29,0.49,7.61,2.45,10.17,3.05h36.6c2.16,0.31,6.53,1.83,10.16,1.02,11.38-2.54,24.57-.11,36.6-3.05,22.19-5.43,44.78-8.67,65.06-16.27,81.97-30.71,152.07-90.15,191.13-163.69,16.64-31.33,26.44-68.18,36.59-105.74,3.66-13.51-.15-27.76,3.05-42.7,1.9-8.85,3.44-28.22,1.02-38.63-1.3-5.6-4.6-12.87-3.05-20.34,2.03-9.76-1.94-19.28-4.07-27.45-3.44-13.22-3.01-23.32-7.11-35.58a418.038,418.038,0,0,0-47.78-97.61c-10.41-15.59-24.73-33.44-39.65-44.73-2.34-1.77-3.03-5.07-5.08-7.12a323.781,323.781,0,0,0-45.75-37.62c-35.68-23.55-76.75-39.91-123.01-52.87q-7.62-.51-15.25-1.01c-9.96-2.31-22.9-2.69-33.55-5.09C1757.27,1181.55,1743.88,1184.57,1734.9,1182.83Zm-322.26,123.02c-7.88,4.62-29.04,5.47-39.65,8.13-20.85,5.22-42.99,9.14-63.03,14.23-9.79,2.49-36.77,2.86-40.66,9.16,9.81,7.83,15.07,24.19,22.36,34.56,14.8,21.07,28.82,42.79,42.7,65.07,4.62,7.42,12.57,14.4,15.25,23.39h2.03c0.56-13.33,5.61-25.92,9.15-36.6,6.12-18.5,8.98-34.21,16.27-50.84,10.51-24,27.11-44.69,38.63-67.1h-3.05Zm803.12,29.48c-11.32-.06-20.29-3.75-29.49-6.1q-9.135-1.02-18.29-2.03c-5.05-1.36-11.95-4.03-17.29-5.09l-9.15,1.02c-22.14-5-46.17-14.71-71.16-16.27v1.02c6.68,5.52,9.89,15.48,14.23,23.38,12.99,23.62,26.38,49.13,36.6,76.26,4.14,10.98,6.25,22.8,9.15,33.55,1.64,6.07.27,15.46,5.08,18.3,3.4-11.08,16.84-25.21,23.39-34.57,13.01-18.62,22.65-38.36,35.58-56.93C2200.07,1359.73,2213.68,1345.43,2215.76,1335.33Zm68.11-14.23c-9.17,18.92-24.62,35.44-35.58,52.87-20.89,33.21-40.53,66.51-63.03,98.62-9,12.83-17.56,26.29-26.43,39.65-4.11,6.18-11.57,13.29-13.22,21.35,3.29,3.57,4.32,7.98,7.12,12.2,9.12,13.79,18.39,27.35,27.45,41.69,19.9,31.51,43.18,62.11,63.02,93.53,10.19,16.12,20.28,31.34,30.5,46.77,3.43,5.17,5.5,13.51,11.19,16.27,1.44-12.78,9.01-25.67,13.21-36.6,6.17-16.04,8.6-33.42,13.22-49.82,3.91-13.89,4.02-27.34,7.11-40.67q0.51-11.175,1.02-22.37c7.81-31.79,7.97-91.24,0-123.02q-1.02-15.75-2.03-31.52c-5.48-21.78-9.4-46.76-16.27-66.08-2.11-5.95-.91-10.47-3.05-16.27-2.96-8.01-8.18-18.63-11.18-26.44C2285.32,1327.11,2286.21,1324.06,2283.87,1321.1Zm-1082.69,1.01c-34.83,78.73-55.35,224.77-27.44,328.4,2.79,10.36,1.62,18.72,5.08,28.47,3.94,11.11,8.7,24.34,12.2,35.58,2.08,6.68,6.17,24.88,11.18,27.46V1741c4.21-4.29,5.56-10.21,9.15-15.25,8.82-12.4,16.75-25.44,25.42-38.64,24.67-37.57,51.33-75.4,76.24-112.85,8.8-13.23,15.02-30.05,26.43-40.67-4.14-13.98-22.36-34.66-30.5-46.77-15.84-23.57-28.98-47.46-44.73-71.17-7.21-10.86-16.42-21.52-23.38-32.53-6.93-10.98-12.03-21.83-19.31-32.54-2.07-3.04-6.09-5.92-8.14-9.15C1209.4,1335.14,1206.87,1326.62,1201.18,1322.11Zm-65.06,35.59c-7.11,6.64-16.15,10.73-24.4,16.27-18.51,12.43-36.83,25.07-55.91,37.61-34.22,22.51-67.41,48.63-101.661,71.17-18.439,12.14-35.974,24.59-53.88,36.61-5.531,3.71-15.839,6.71-18.3,13.21h1.017c9.358,9.11,22.388,14.03,33.548,21.35,6.916,4.54,13.487,11.48,20.332,16.27,16.754,11.72,33.8,21.16,50.83,32.54,32.853,21.93,65.273,44.86,98.613,67.1,16.69,11.13,32.79,26.2,50.83,35.58v-2.03c-2.91-4.17-2.39-9.66-4.07-15.25-5.03-16.78-6.57-34.89-11.18-53.89-15.07-62.11-11.33-167.77,4.07-225.71,4.75-17.9,5.83-35.12,12.19-50.83h-2.03Zm1211.8,2.03c9.89,27.31,12.31,58.88,19.31,89.47,3.05,13.35.03,25.61,3.05,39.65,3.39,15.79,2.03,38.04,2.03,56.94v22.37c-3.9,17.6-1.85,37.84-6.1,55.92-6.26,26.66-11.72,53.97-17.28,79.3h2.03c4.82-5.97,12.83-8.86,19.32-13.22,12.29-8.25,25.14-16.67,37.61-25.41,42.94-30.08,86.41-61.63,130.13-90.49,14.96-9.87,29.24-19.78,43.71-29.49,6.1-4.08,17.14-7.51,20.34-14.23-5.48-1.76-8.87-6.41-13.22-9.15-14.19-8.94-27.3-18.14-40.66-27.45-24.17-16.83-48.51-31.54-73.2-47.79-19.53-12.85-38.51-28.68-57.95-41.68-9.56-6.4-18.8-10.94-28.46-17.29-5.12-3.36-10.04-8.92-15.25-12.2-7.55-4.74-17.36-8.09-22.37-15.25h-3.04Zm-998.31,245.03c-7.19,14.58-18.69,27.51-27.45,40.67-11.72,17.6-20.95,35.25-32.53,52.87-6.41,9.74-17.2,19.96-21.35,31.51,9.98,0.25,19.69,3.9,28.47,6.11,16.83,4.22,31.66,3.62,48.79,8.13,21,5.53,44.42,12.87,68.11,14.23v-1.01c-9.25-7.6-12.9-21.99-19.31-32.54-12.86-21.15-23.9-46.99-32.53-72.19-2.54-7.4-1.58-12.91-4.07-20.33-2.69-8.02-5.77-16.87-6.1-27.45h-2.03Zm783.8,1.02c0.08,15.24-6.03,30.36-10.16,42.7-14.28,42.63-31,77.06-52.87,110.82h1.02c5.52-3.24,19.6-3.14,26.43-5.08,24.13-6.88,52.52-10.99,76.25-17.29,13.06-3.46,32.16-1.53,41.68-8.13-8.63-9.22-13.18-21.81-20.34-32.54-12.07-18.09-26.67-36.77-38.63-54.9C2149.32,1630.02,2144.56,1613.25,2133.41,1605.78Zm-922.06,160.64c2.44,11.49,10,20.02,14.23,29.48,12.96,28.94,29.44,53.14,46.77,77.27,60.42,84.14,136.56,144.56,234.83,191.14v-6.1c-6.87-11.27-6.89-40.06-11.18-54.9-12.28-42.48-16.57-89.47-28.46-132.17-3.81-13.66-4.56-43.3-11.19-52.87-6.17-4.07-16.46-2.91-24.4-5.08-15.67-4.31-33.57-6.52-50.83-11.19Q1296.25,1784.21,1211.35,1766.42Zm1061.34,0c-9.83,6.14-23.93,3.98-36.6,7.11-12.87,3.18-27.95,6.52-40.67,10.17l-13.21,1.02c-14.09,3.49-30.85,7.44-44.73,11.18-6.99,1.89-11.38-.34-19.32,2.03-12.78,3.83-30.91,9.43-43.71,9.15-3.36-.07-10.33,3.19-13.22,4.07a169.737,169.737,0,0,1-32.53,6.1c-1.24,2.32-1.66,2.29-2.03,6.1-4.35,6.91-2.63,16.44-5.09,25.42-3.01,11.01-6.17,25.61-9.14,36.6q-0.51,6.105-1.02,12.2c-8.97,31.03-11.27,65.18-20.33,97.61-3.92,14.02-4.88,29.47-9.15,44.73-2.07,7.39-4.74,14.95-5.09,24.4h2.04c8.03-7.15,26.12-12.35,36.6-17.28,1.35-1.36,2.71-2.71,4.06-4.07,7.49-4.84,15.94-6.32,23.38-11.18,10.25-6.69,20.88-13.33,31.52-20.34,15.52-10.22,29.08-24.54,43.71-35.58,42.63-32.17,78.77-75.21,107.76-120.99,13.36-21.1,26.93-41.75,37.62-66.09C2265.92,1783.36,2275.18,1772.49,2272.69,1766.42ZM1133.07,2140.57c14.12-1.28,28.64-4.88,40.67-8.14q12.195-1.515,24.39-3.05c17.5-4.41,38.79-7.59,55.92-12.2q9.66-1.02,19.31-2.03c29.14-7.55,63.3-11.48,92.51-19.32q9.15-1.02,18.3-2.03c9.97-2.5,20.81-4.7,30.5-7.12,7.3-1.82,16.27-.14,21.35-4.07-7.57-2.35-14.09-8.31-20.33-12.2-18.03-11.23-34.27-22.64-50.83-34.57-52.28-37.64-96.07-83.39-133.18-136.23-11.75-16.74-33.12-41.88-39.64-62.02H1190c-1.28,23.79-9.57,55.35-15.25,77.27-2.89,11.18-1.13,20.34-4.06,31.51-3.84,14.62-7.28,34.15-11.19,48.81q-1.515,12.705-3.05,25.41C1146.5,2057.68,1138.4,2100.87,1133.07,2140.57ZM2293.02,1838.6c-14.51,31.46-37.28,57.88-56.93,84.39-38.58,52.06-86.95,94.82-141.31,131.16-14.33,9.57-28.74,20.41-44.73,28.46v1.02c15.49,1.47,32.1,5.59,45.75,9.15q9.645,1.02,19.31,2.03c18.74,4.76,42.28,8.36,61,13.22q10.17,1.02,20.33,2.03c5.03,1.33,11.96,4.12,17.28,5.09l8.14-1.02c40.89,9.46,85.98,17.54,129.1,26.44-2.93-29.36-11.36-64.82-18.29-92.53q-1.02-9.645-2.04-19.31c-9-33.19-12.72-71.01-21.35-104.72-5.31-20.75-7.18-42.81-12.2-62.02C2294.99,1853.96,2297.18,1844.41,2293.02,1838.6Zm-777.7,22.37c1.15,12.91,5.25,24.54,8.13,35.59q1.02,9.135,2.03,18.3c3.94,13.94,7.54,31.75,11.18,45.75,2.63,10.1,3.92,41.8,10.17,45.75,5.08-5.16,12.19-6.93,18.3-11.18,14.93-10.39,30.57-22.61,45.75-32.54,6.48-4.25,12.91-5.96,19.31-10.17,5.53-3.63,10.73-9.59,16.27-13.21,3.2-2.1,6.97-1.98,10.16-4.07,4.21-2.75,6.87-7.24,12.2-9.15v-1.02c-20.07-.28-42.42-9.65-57.94-16.26-20.12-8.58-40.99-13.46-58.97-24.41C1539.67,1876.89,1527.51,1868.34,1515.32,1860.97Zm452.38,0c-6.44,8.66-17.95,11.49-27.44,17.28-20.31,12.4-45.58,26.18-70.15,33.56-14.23,4.27-27.21,7.41-40.66,11.18-5.1,1.43-9.63.44-13.22,3.05,13.54,7.73,25.72,18.21,38.63,26.43,13.43,8.55,26.31,15.65,39.65,24.41,14.68,9.63,28.17,21.46,44.73,29.48,0.44-15.43,6.51-33.01,10.17-46.77,1.92-7.24-.47-11.09,1.01-17.28,2.46-10.23,6.39-22.52,9.15-32.54v-7.11C1961.4,1895.67,1970.8,1866.88,1967.7,1860.97ZM1741,1936.21c-3.13,3.79-8.08,4.26-12.2,7.11-10.61,7.36-21.28,13.88-32.53,21.35-38.77,25.77-77.72,54.27-116.91,79.31-9.18,5.86-44.14,23.97-47.78,31.52,12.95,1.36,26.52,8.7,37.62,13.21,15.36,6.25,33.14,8.7,48.79,13.22l14.24,1.02c7.56,1.94,18.26,4.17,26.43,6.1q12.705,0.51,25.41,1.01c30.71,7.54,87.2,7.72,117.93,0q15.75-1.005,31.51-2.03c22.33-5.61,47.26-9,67.1-16.27,5.65-2.07,10.64-.91,16.26-3.05,7.79-2.96,18.94-8.04,26.44-11.18,3.69-1.55,7.4-.89,10.16-3.05-13.49-7.6-25.67-18.34-38.63-26.44-38.81-24.25-75.87-48.05-113.86-73.2-8.4-5.56-16.86-12.9-25.41-18.3-5.81-3.66-11.6-5.37-17.29-9.15C1752.81,1943.75,1748.69,1937.7,1741,1936.21Zm-171.8,202.32c20.97,36.92,48.17,69.85,71.16,104.72,18.9,28.67,36.27,57.24,55.91,85.41,13.9,19.94,34.1,43.21,44.73,65.07l1.02-1.02c10.61-11.39,17.65-26.54,26.43-39.65,16.71-24.95,33.92-49.84,50.83-75.24,6.38-9.58,15.05-18.93,21.35-28.47,15.57-23.59,29.61-46.97,45.75-70.15,8.91-12.81,18.94-25.23,26.43-39.65h-3.05c-3.99,3-9.7,2.4-15.25,4.07-17.55,5.26-36.05,6.51-55.91,11.18-41.93,9.86-125.14,13.22-169.78,3.05-14.41-3.29-26.89-1.58-40.66-5.08C1608.67,2147.81,1588.3,2142.74,1569.2,2138.53Zm300.91,809.3H1609.86v-2.03c4.63-6.27,5.85-14.84,9.15-22.37,8.57-19.57,16.57-39.64,25.41-59.98,21.13-48.57,42.96-98.85,64.05-147.43,7.8-17.97,14.86-35.67,22.37-52.87,2.79-6.4,3.33-18.05,11.18-19.31,1.84,8.34,6.99,16.19,10.16,23.38,8.16,18.5,15.55,37.09,23.39,54.9,22.23,50.58,40.96,100.87,63.03,151.49,6.75,15.5,13.29,31.59,20.33,47.79C1862.45,2929.5,1868.57,2938.18,1870.11,2947.83Zm-1059.3-301.96h3.05c1.961,5.68,6.978,7.97,10.166,12.2,11.512,15.29,25.3,28.67,36.6,43.72,20.069,26.74,42.987,50.52,63.029,77.27,4.593,6.13,11.679,11.15,16.266,17.28,8.316,11.12,18.288,20.71,26.432,31.52,3.327,4.42,5.534,9.12,10.166,12.2V2655.02h46.765V2958h-1.02c-9.49-14.56-24.207-25.92-34.563-39.65-27.469-36.44-59.981-68.27-87.428-104.72-12.055-16.02-32.332-30.95-41.68-48.8h-1.017v183H810.808V2645.87Zm1799.392,6.1c15.71-.19,30.82.2,43.71,4.07,52.7,15.78,87.3,49.34,105.73,99.63,6.68,18.24,12.26,49.87,6.1,74.22-2.58,10.21-5.07,21.09-9.15,30.51-16.54,38.15-48.44,66.53-87.43,82.35-11.06,4.49-24.15,5.43-36.6,8.13-22.06,4.8-55-4.67-68.11-10.16-45.55-19.09-73.68-47.7-89.46-96.59-5.04-15.62-10.19-44.73-5.08-66.09l7.11-27.45c15.99-39.13,44.94-70.83,83.37-87.44,9.65-4.17,20.95-6.51,31.51-9.15C2597.3,2652.66,2605.88,2654.63,2610.2,2651.97ZM394,2654H589.188v45.76H513.959v201.3h75.229v45.76H394v-45.76h73.2v-201.3H394V2654Zm853.95,1.02h195.19v45.75h-75.23v247.06h-46.77V2700.77h-73.19v-45.75Zm880.38,191.14v101.67h-47.78V2656.04c7.14-2.37,19.55-1.02,28.46-1.02h59.98c4.59,2.73,27.75,3.01,34.57,5.08,16.41,5,29.52,13.17,41.68,22.37,21.21,16.06,34.07,62.7,22.36,98.62-8,24.58-21.54,43.47-43.71,53.89q35.58,56.415,71.16,112.85h-54.9c-3.03-9.92-12.07-18.21-17.28-26.43-10.52-16.62-20.84-32.8-31.51-48.8-3.24-4.85-12.31-24.38-16.27-26.44h-46.76Zm825.48-191.14H3149v45.75h-75.23v247.06h-46.76V2700.77h-73.2v-45.75Zm-349.71,42.7c-6.73,4.21-20.87,4.79-28.47,8.14-25.88,11.4-45.79,36.8-54.89,65.07-19.15,59.45,19.59,109.49,57.94,126.07,13.72,5.93,36.82,13.27,57.95,8.13,59.46-14.46,104.87-77.91,73.2-149.46-11.78-26.59-37.4-47.13-67.1-55.91C2631.91,2696.56,2617.5,2697.65,2604.1,2697.72Zm-475.77,3.05v100.66c52.74,0.74,84.1,2.13,94.54-40.67,2.63-10.77-1.47-23.26-4.06-29.49C2204.41,2696.69,2176.25,2700.11,2128.33,2700.77Zm-330.4,200.29c-0.94-8.17-5.99-16.1-9.15-22.36-5.41-10.74-8.73-23.09-13.21-33.55-12.91-30.09-23.03-66.36-37.62-97.61h-1.01c-1.69,13.6-11.23,27.87-16.27,39.65-9.49,22.17-15.74,43.79-25.42,66.09-6.62,15.26-15.86,31.05-20.33,47.78h123.01Z" transform="translate(-394 -585)"/>
</svg>
