<?xml version="1.0" encoding="UTF-8" standalone="no"?>
<svg
   width="3118"
   height="3118"
   viewBox="0 0 3118 3118"
   version="1.1"
   id="svg7"
   sodipodi:docname="shape large.svg"
   inkscape:version="1.1.2 (0a00cf5339, 2022-02-04, custom)"
   xmlns:inkscape="http://www.inkscape.org/namespaces/inkscape"
   xmlns:sodipodi="http://sodipodi.sourceforge.net/DTD/sodipodi-0.dtd"
   xmlns="http://www.w3.org/2000/svg"
   xmlns:svg="http://www.w3.org/2000/svg">
  <sodipodi:namedview
     id="namedview9"
     pagecolor="#ffffff"
     bordercolor="#666666"
     borderopacity="1.0"
     inkscape:pageshadow="2"
     inkscape:pageopacity="0.0"
     inkscape:pagecheckerboard="0"
     showgrid="false"
     inkscape:zoom="0.13614496"
     inkscape:cx="1549.8186"
     inkscape:cy="1799.5524"
     inkscape:window-width="1920"
     inkscape:window-height="1009"
     inkscape:window-x="-8"
     inkscape:window-y="-8"
     inkscape:window-maximized="1"
     inkscape:current-layer="svg7" />
  <defs
     id="defs4">
    <style
       id="style2">
      .cls-1 {
        fill-rule: evenodd;
      }
    </style>
  </defs>
  <path
     id="shape_large_1"
     data-name="shape large 1"
     class="cls-1"
     d="m 2661.1125,455.4395 c -1.49,13.888 -6.06,30.1 -9.43,43.119 -4.99,19.226 -6.07,39.111 -10.78,56.593 -3.5,12.97 -2.01,23.373 -5.39,36.381 -9.26,35.646 -13.73,76.343 -22.91,111.838 -4.58,17.738 -3.48,33.469 -8.08,51.2 -12.81,49.348 -17.78,104.468 -30.99,153.608 -5.35,19.91 -4.11,38.08 -9.43,57.94 -8.39,31.31 -11.8,67.02 -20.21,98.37 q -1.35,10.77 -2.69,21.55 c -4.85,17.46 -14.96,54.15 -12.13,71.42 15.05,4.59 34.43,23.38 47.16,32.34 29.45,20.73 59.51,40.89 88.92,60.63 104.43,70.12 208.61,139.89 311.23,211.55 34.45,24.06 69.39,46.7 103.74,70.07 8.16,5.55 33.95,18.01 36.38,26.95 -15.84,8.81 -30.01,20.82 -44.46,30.99 -33.5,23.56 -68,45.48 -101.05,68.72 -48.78,34.3 -98.52,65.29 -148.21,98.37 -50.59,33.68 -100.4,71.21 -150.9,105.1 -36.81,24.7 -73.33,48.96 -109.13,74.11 -10.1,7.09 -33.09,14.36 -33.68,29.64 7.13,11.76 5.36,36.16 9.43,51.2 10.78,39.88 14.89,85.31 25.6,125.32 4.19,15.64 2.56,28.55 6.74,44.46 20.22,77.07 27.28,161.12 47.15,238.5 5.15,20.05 4.24,37.78 9.43,57.94 8.06,31.31 10.4,65.32 18.87,98.36 6.09,23.8 14.11,51.69 14.82,78.16 -20.23,-0.32 -43.89,-7.01 -61.98,-12.13 q -14.82,-2.025 -29.64,-4.04 c -32.91,-8.89 -70.9,-12.81 -103.74,-21.56 -25.05,-6.67 -47.62,-5.79 -72.76,-12.13 -81.86,-20.65 -171.88,-27.34 -253.3,-49.85 -43.67,-12.08 -90.82,-13.64 -133.38,-25.61 -6.34,-1.78 -43.63,-7.37 -44.46,-6.73 -9.94,7.06 -14.7,20.74 -21.56,30.99 -12.08,18.04 -26.95,35.84 -39.07,53.9 -9.67,14.4 -17.02,28.95 -26.95,43.11 -73.49,104.89 -146.95,211.68 -218.26,318 -24.33,36.27 -48.78,71.95 -72.76,107.8 -5.42,8.1 -18.16,34 -26.94,36.38 -5.37,-17.61 -22.67,-32.69 -32.34,-47.16 -20.7,-30.99 -41.57,-61.24 -61.98,-91.63 -69.75,-103.84 -141.04,-206.28 -210.18,-309.91 -24.86,-37.26 -50.82,-73.77 -75.45,-110.49 -6.35,-9.47 -12.03,-29.4 -25.6,-30.99 -12.48,7.81 -40.33,6.57 -56.58,10.78 -30.94,8.01 -66.27,11.99 -97.01,20.21 -17.94,4.79 -33.46,3.31 -51.2,8.08 -63.35,17.06 -133.27,22.1 -196.708,39.08 q -18.187,2.7 -36.378,5.39 c -47.771,12.31 -98.789,15.91 -148.205,28.3 -33.978,8.51 -72.395,16.72 -107.785,21.55 -0.23,-20.92 6.192,-41.14 10.778,-59.28 10.146,-40.13 12.9,-81.31 22.9,-119.93 5.717,-22.07 5,-42.39 10.778,-64.67 15.2,-58.66 20.691,-123.46 36.378,-181.91 4.82,-17.96 3.53,-33.09 8.084,-51.2 9.514,-37.85 14.5,-80.79 24.251,-118.58 q 2.022,-14.82 4.042,-29.64 c 6.117,-23.83 13.875,-51.59 14.821,-78.15 -18.874,-9.03 -35.82,-24.63 -52.546,-36.39 -11.493,-8.08 -23.554,-13.51 -35.03,-21.56 -19.134,-13.41 -38.542,-28.81 -57.935,-41.77 -98.7,-65.93 -195.481,-133.89 -293.715,-199.42 -38.679,-25.8 -76.328,-52.69 -114.522,-78.15 -9.527,-6.35 -31.057,-13.26 -33.683,-25.6 17.189,-5.24 33.159,-22.49 47.156,-32.34 34.851,-24.52 70.68,-47.22 105.091,-71.42 98.846,-69.51 200.69,-134.32 299.1,-203.46 34.888,-24.51 70.657,-47.23 105.09,-71.42 10.858,-7.62 31.745,-12.15 32.336,-29.64 -7.9,-12.01 -6.621,-39.21 -10.778,-55.25 -8.678,-33.46 -12.584,-71.66 -21.558,-105.1 q -1.347,-11.445 -2.694,-22.9 c -21.349,-79.16 -28.122,-165.76 -48.5,-245.239 -4.075,-15.892 -2.768,-28.65 -6.736,-44.466 -9.656,-38.486 -12.576,-79.738 -22.905,-119.923 -4.523,-17.6 -5.624,-37.217 -10.778,-56.593 -3.491,-13.121 -7.516,-27.238 -8.084,-43.118 l 699.265,133.4 c 6.53,-10.75 15.76,-20.828 22.9,-30.991 25.46,-36.2 48.99,-73.409 74.11,-109.144 71.01,-101.033 136.81,-205.25 207.48,-305.871 25.41,-36.166 48.98,-73.368 74.11,-109.143 6.19,-8.816 12.81,-29.665 24.25,-32.339 7.31,15.957 20.23,29.045 29.64,43.118 22.85,34.2 45.49,67.854 68.71,101.059 70.79,101.215 136.8,205.242 207.49,305.871 24.1,34.317 46.66,69.447 70.06,103.754 7.02,10.293 15.34,33.322 30.99,33.686 11.14,-6.635 42.99,-6.739 57.93,-10.779 40.6,-10.979 86.18,-15.169 126.65,-25.6 l 29.64,-4.042 c 74.72,-20.132 156.87,-25.732 231.74,-45.813 15.01,-4.026 27.99,-2.845 43.11,-6.738 40.73,-10.485 84.5,-13.474 126.65,-24.254 23.87,-6.106 51.78,-14.089 78.15,-14.824 z m -1103.46,-340.9 c -5.76,11.742 -15.87,21.878 -22.9,32.339 -4.51,6.7 -6.26,13.329 -10.78,20.212 -9.93,15.107 -23.56,29.393 -33.68,44.466 -52.37,78 -102.84,154.831 -154.94,233.109 -7.88,11.826 -18.75,23.285 -26.95,35.033 -10.13,14.513 -17.19,29.618 -26.95,44.466 -9.5,14.459 -26.57,28.592 -32.33,45.813 h 1.34 c 9.12,-6.769 24.5,-7.1 36.38,-10.779 28.48,-8.825 58.36,-12.3 90.27,-20.212 51.67,-12.815 110.55,-16.157 173.81,-16.169 28.03,-0.006 60.93,-2.671 84.88,2.695 h 17.51 c 21.65,4.882 45.25,2.782 67.37,8.084 28.76,6.894 59.15,9.422 87.57,17.517 18.3,5.211 38.34,13.339 57.94,16.17 v -1.348 c -8.45,-8.394 -13.24,-19.695 -20.21,-29.644 -17.77,-25.338 -34.23,-52.587 -52.55,-78.152 -38.1,-53.188 -73.74,-108.151 -110.48,-163.041 -14.18,-21.189 -31.63,-42.026 -45.81,-63.331 -18.1,-27.208 -36.1,-52.936 -53.89,-79.5 -8,-11.954 -14.32,-29.134 -25.6,-37.733 z m -1018.57,420.4 c 0.374,22.922 8.376,46.356 13.473,66.025 3.28,12.654 0.94,20.727 4.042,33.686 4.47,18.67 8.958,40.283 13.473,57.94 3.874,15.148 1.349,26.837 5.39,41.771 13.9,51.382 20.645,110.47 33.683,161.69 q 1.347,14.82 2.694,29.65 c 8.026,30 12.2,65.07 20.21,95.67 3.413,13.04 4.59,47.19 10.779,55.24 v -1.34 c 12.551,-13.76 18.258,-35.24 28.293,-51.21 22.088,-35.14 45.729,-69.25 70.061,-102.4 15.17,-20.67 34.28,-38.69 49.852,-59.29 q 8.76,-8.085 17.51,-16.17 c 23.87,-31.56 57.21,-59.789 88.93,-83.543 8.85,-6.631 16.65,-16.331 25.6,-22.907 48.82,-35.874 99.7,-72.211 156.28,-99.711 v -1.348 c -17.26,-0.856 -37.19,-6.452 -52.54,-10.779 -14.24,-4.015 -25.72,-1.578 -40.42,-5.39 -15.19,-3.937 -34.07,-8.16 -49.85,-12.127 l -20.21,-1.347 c -51.9,-13.521 -115.3,-17.6 -163.026,-33.687 -13.479,-4.543 -27.6,-1.75 -41.767,-5.39 -37.709,-9.69 -83.05,-16.019 -121.259,-25.6 -17.378,-4.36 -35.687,-3.563 -51.198,-9.433 z m 2039.84,1.347 c -26.18,2.608 -55.35,9.809 -79.49,16.17 -20.84,5.489 -41.07,3.886 -61.98,9.432 -30.32,8.045 -67.43,16.211 -97.01,22.906 l -13.47,-1.347 c -49.69,11.288 -105.17,17.567 -154.94,30.991 -29.36,7.92 -60.73,10.259 -88.92,17.517 -10.84,2.79 -35.82,2.048 -40.42,9.432 h 2.69 c 9.5,9.327 24.73,13.072 36.38,20.212 26.69,16.356 53.92,33.19 79.49,51.2 95.36,67.163 176.75,151 243.87,246.579 18.01,25.66 34.12,51.87 51.19,79.5 6.33,10.23 15.4,21.02 18.87,33.69 1.08,-1.38 0.47,-0.37 1.34,-2.69 7.15,-10.79 4.33,-25.98 8.09,-40.43 8.64,-33.18 13.38,-69.72 21.55,-102.4 l 1.35,-20.22 c 13.54,-52.19 19.73,-111.01 33.69,-163.037 4.08,-15.228 1.34,-27.2 5.38,-43.119 3.83,-15.046 8.18,-34.028 12.13,-49.856 3.7,-14.858 1.62,-25.769 5.39,-40.423 5.87,-22.8 12.71,-48.116 14.82,-74.107 z m -1054.95,49.856 c -8.39,5.539 -23.17,-0.246 -35.03,2.7 -23.31,5.778 -51.33,2.394 -75.45,8.084 -17.5,4.128 -39,8 -55.24,12.128 l -18.86,1.347 c -24.99,7.17 -53.63,16.062 -76.8,24.254 -18.45,6.522 -51.68,12.278 -64.67,22.907 l 1.35,1.347 c 27.77,12.494 51.45,35.418 76.79,51.2 60.56,37.717 118.74,75.178 177.85,114.534 15.64,10.41 31.19,23.61 47.16,33.69 8.44,5.33 17.36,8.03 25.59,13.47 10.44,6.9 22.07,21.16 36.38,22.91 6.94,-9.56 23.76,-14.9 33.68,-21.56 28.44,-19.08 56.61,-37.89 86.23,-56.6 13.77,-8.69 26.79,-21.02 40.42,-29.639 q 4.725,-1.347 9.43,-2.695 c 12.9,-8.134 25.18,-19.776 37.73,-28.3 24.09,-16.358 48.47,-28.347 72.75,-44.466 26.14,-17.346 52.1,-37.688 79.5,-53.9 v -1.348 c -15.95,-2.112 -32.05,-12.177 -45.81,-17.517 -30.58,-11.862 -64.36,-18.4 -95.66,-28.3 l -18.86,-1.347 c -8.82,-2.261 -20.52,-5.9 -29.65,-8.085 h -12.12 c -57.81,-14.525 -126.59,-14.045 -196.71,-14.814 z m -347.61,79.5 c -8.25,7.269 -36.48,16.789 -48.5,21.56 -5.69,2.257 -11.2,7.738 -16.17,10.779 -5.7,3.49 -11.33,3.5 -17.51,6.738 -7.15,3.745 -14.66,10.6 -21.56,14.821 -12.86,7.872 -25.32,12.069 -37.73,20.212 -102.9,67.57 -194.17,152.76 -265.419,251.97 -13.744,19.14 -23.17,39.38 -36.377,59.29 a 548.16,548.16 0 0 0 -45.809,83.54 c -6.1,13.92 -16.435,25.31 -18.862,43.12 h 2.694 c 9.35,-6.15 24.47,-4.82 36.378,-8.08 24.869,-6.83 53.766,-8.88 79.492,-16.17 38.123,-10.81 82.343,-16.41 119.913,-26.95 q 19.53,-2.7 39.07,-5.39 c 18.01,-5.37 39.98,-9.95 57.93,-14.82 12.28,-3.33 21.17,-0.72 32.34,-4.05 16.11,-4.8 35.45,-11.09 53.89,-12.12 1.65,-3.08 2.21,-3.04 2.7,-8.09 6.54,-10.49 5.87,-33.47 9.43,-47.16 7.16,-27.56 10.11,-55.58 17.51,-84.89 8.01,-31.7 14.66,-68.32 22.91,-99.71 q 1.35,-12.795 2.69,-25.6 c 2.29,-8.08 5.94,-19.6 8.09,-28.3 v -10.777 c 9.75,-37.678 20.32,-79.472 25.6,-119.924 h -2.7 z m 763.93,0 c 11.74,38.155 14.83,81.116 25.6,118.576 3.68,12.8 1.73,23.724 5.39,36.384 7.4,25.56 12.07,56.37 18.86,82.19 2.33,8.87 0.17,14.11 2.7,22.91 14.75,51.31 23.9,109.66 35.03,163.04 14.86,6.12 32.71,5.87 49.85,10.78 39.82,11.41 84.5,15.55 126.65,26.95 31.5,8.52 67.06,13.14 98.35,21.56 14.79,3.98 27.16,2.62 41.77,6.73 33.41,9.41 72.68,19.3 109.13,24.26 v -2.7 c -2.47,-2.95 -2.14,-6.87 -4.04,-10.78 -6.92,-14.21 -13.29,-28.15 -20.21,-43.11 -13.62,-29.48 -33.87,-62.8 -51.2,-90.28 -77.46,-122.83 -183.54,-222.25 -307.19,-299.137 -27.61,-17.168 -55.31,-32.071 -86.23,-47.161 -13.71,-6.695 -27.34,-17.421 -44.46,-20.213 z m -714.08,90.28 c -10.67,64.22 -23.14,131.27 -40.42,191.34 q -0.675,11.445 -1.34,22.9 c -4.98,19.58 -11.98,40.31 -14.83,61.99 h 2.7 c 17.18,-15.86 38.24,-25.59 59.28,-37.73 36.94,-21.33 78.99,-43.43 122.61,-57.94 h 8.08 c 23.57,-7.04 50.05,-15.17 75.45,-21.56 10.37,-2.61 21.09,1.09 28.3,-4.04 -22.21,-10.49 -40.59,-27.63 -60.63,-40.43 -35.5,-22.65 -69.93,-44.25 -105.1,-67.37 -11.66,-7.67 -23.32,-17.853 -35.03,-25.6 -6.23,-4.13 -12.39,-5.467 -18.86,-9.432 -6.35,-3.894 -11.78,-10.402 -20.21,-12.129 z m 664.23,0 c -10.77,14.413 -34.96,21.91 -49.85,32.34 -40.38,28.29 -83.66,58.86 -125.3,84.89 -12.46,7.78 -52.48,28.2 -57.94,39.07 24.9,0.26 50.6,8.73 71.41,14.83 55.6,16.27 106.19,32.05 150.9,59.28 23.52,14.33 45.81,33.44 70.06,45.82 v -8.09 c -4.61,-6.94 -2.91,-16.07 -5.39,-25.6 -3.8,-14.65 -8.46,-31.49 -12.12,-45.81 v -12.13 c -15.37,-59.8 -25.45,-123.2 -39.08,-184.6 z m -343.57,212.9 c -5.67,3.32 -18.84,0.88 -26.94,1.34 -6.92,0.4 -16.19,2.73 -21.56,4.05 h -16.17 c -39.2,9.39 -77.97,12.11 -113.17,25.6 -179.45,68.74 -296.41,188.17 -367.82,365.16 -7.47,18.52 -7.75,38.35 -12.13,56.59 -4.4,18.35 -9.98,39.54 -14.82,59.29 v 20.21 c -14.6,61.09 0.47,163.82 16.17,210.2 3.46,10.2 1.86,18.3 5.39,28.3 7.94,22.49 17.38,46.23 26.95,68.72 8.95,21.04 23.53,41.68 35.03,60.63 42.65,70.3 95.93,129.64 161.68,176.52 17.97,12.81 38.21,23.15 56.58,35.03 17.34,11.22 38.31,16.04 57.94,24.26 28.91,12.1 59.61,25.1 92.96,33.68 14.64,3.77 30.18,4.95 43.12,8.09 l 21.55,-1.35 c 4.83,1.08 12.44,4.21 17.52,5.39 h 59.28 c 4.12,0.61 12.72,2.69 18.86,1.35 18.68,-4.07 39.18,-0.72 57.94,-5.39 19.31,-4.81 44.07,-5.63 63.32,-12.13 4.46,-1.5 11.73,-6.53 16.17,-8.08 9.97,-3.48 18.66,-1.79 28.29,-5.39 130.1,-48.71 231.31,-130.02 303.15,-237.15 22.14,-33.03 37.24,-69.59 52.55,-109.15 5.84,-15.11 19.31,-37.27 18.86,-53.9 -0.58,-21.42 10.26,-38.49 14.82,-56.59 2.29,-9.09 2.39,-16.94 4.04,-24.25 v -22.91 c 7.15,-29.99 5.41,-79.99 -1.35,-107.8 l 1.35,-29.64 c -9,-36.74 -13.43,-74.91 -25.6,-109.14 -65.38,-183.91 -197.48,-307.23 -379.94,-374.59 -9.82,-3.63 -18.31,-1.9 -28.3,-5.39 -19.35,-6.78 -46.41,-10.95 -68.71,-16.17 h -20.21 c -6.33,-1.4 -16.69,-2.68 -22.9,-4.05 -16.56,-3.641 -38.8,0.489 -53.9,-1.341 z m -518.71,199.42 c -10.58,6.96 -28.72,3.87 -41.77,8.08 -20.61,6.66 -43.84,7.38 -67.37,13.48 -26.23,6.8 -57.1,13.58 -83.53,20.21 h -13.47 c -14.45,3.68 -32.75,7.79 -47.159,12.13 -6.257,1.88 -15.672,0.47 -18.863,5.39 7.482,5.52 9.753,14.82 14.821,22.9 10.541,16.82 22.3,34.2 33.681,51.21 26.73,39.92 52.67,80.58 79.49,121.27 8.54,12.95 19.64,25.06 26.95,39.07 h 1.35 c 1.07,-28.64 10.97,-58.54 18.86,-82.19 10.7,-32.09 16.82,-60.18 29.64,-88.93 19.77,-44.36 49.02,-83.63 74.1,-122.62 z m 1058.99,1.35 v 2.69 c 16.48,13.39 24.97,36.65 36.38,55.25 31.08,50.68 52.97,107.83 72.75,171.12 6.35,20.31 4.72,43.56 12.13,63.33 0.45,-0.45 0.9,-0.89 1.34,-1.34 15.03,-15.31 25.59,-40.73 37.73,-59.29 23.07,-35.26 46.64,-70.56 70.06,-106.45 4.46,-6.83 11.74,-13.44 16.17,-20.21 2.77,-4.24 2.62,-9.23 5.39,-13.48 7.32,-11.21 18.87,-20.48 22.9,-35.03 -14.58,-1.48 -29.67,-7.21 -43.11,-10.78 -13.24,-3.52 -23.13,-1.78 -36.38,-5.39 -15.06,-4.1 -35.31,-8.49 -51.2,-12.13 l -13.47,1.35 c -39.84,-9.101 -86.52,-25.861 -130.69,-29.641 z m -1429.506,26.949 c -1.5,13.29 -9.576,24.37 -13.473,35.03 -6.423,17.56 -12.241,36.12 -17.515,52.55 -11.227,34.98 -16.689,74.06 -25.6,110.49 -6.342,25.93 -3.66,52.73 -9.432,78.15 v 32.34 c -6.825,27.86 -6.986,81.23 0,109.15 v 32.33 c 5.643,24.96 3.332,51.36 9.432,76.81 6.255,26.1 9.052,56.27 17.515,82.19 12.678,38.84 24.752,77.53 39.072,114.54 l 1.347,-1.35 c 18.851,-18.79 34.361,-53.66 49.851,-76.81 39.289,-58.7 77.692,-118.46 117.218,-177.86 18.63,-28 37.09,-55.6 55.24,-84.89 4.4,-7.1 12.85,-12.26 14.82,-21.56 -9.89,-10.1 -14.92,-24.31 -22.91,-36.38 -13.92,-21.05 -27.94,-41.44 -41.76,-63.33 -34.68,-54.92 -73.308,-108.9 -109.135,-163.04 -15.152,-22.9 -29.732,-45.12 -44.461,-67.37 -6.653,-10.06 -10.481,-24.17 -20.209,-30.99 z m 1802.716,0 c -3.4,10.66 -13.07,19.57 -18.87,28.29 -4.01,6.04 -5.29,12.73 -9.43,18.87 l -9.43,9.43 c -5.14,7.28 -7.29,15.15 -12.12,22.91 -3.9,6.25 -10.8,11.61 -14.83,17.51 -5.97,8.75 -9.03,18.31 -14.82,26.95 -34.82,52.03 -70.25,103.86 -103.74,157.65 -13.83,22.22 -30.07,42.29 -43.11,66.03 -3.28,5.96 -9.16,8.48 -10.78,16.17 14.32,15.46 23.6,37.16 35.03,55.24 17.19,27.21 36.14,54.41 53.89,82.2 3.56,5.56 9.84,10.72 13.47,16.17 31.03,46.55 58.87,92.93 88.93,140.13 14.41,22.63 33.26,44.02 45.81,68.72 0.45,-0.45 0.89,-0.9 1.34,-1.35 6.08,-8.23 6.72,-19.31 10.78,-29.64 7.09,-18.01 15.26,-39.12 21.56,-57.94 3.2,-9.57 2.06,-17.12 5.39,-26.95 42.16,-124.45 43.01,-329.91 8.08,-462.17 -5.88,-22.28 -6.84,-39.7 -13.47,-60.64 -5.86,-18.52 -15.13,-38.98 -21.56,-56.59 -4.03,-11.05 -4.11,-24.2 -12.12,-30.99 z m -1890.292,51.2 c -8.319,8.19 -19.687,12.2 -29.641,18.86 -31.445,21.06 -62.285,43.35 -94.312,64.68 -71.909,47.9 -142.424,100.34 -214.224,148.22 -26.456,17.64 -52.266,35.23 -78.144,52.55 -12.693,8.5 -27.529,14.67 -37.725,25.6 h 1.347 c 9.69,12.06 27.246,18.29 40.42,26.95 32.309,21.25 64.186,44.17 97.007,66.03 21.232,14.14 42.425,31.13 63.324,45.81 53.666,37.69 108.1,71.75 163.025,107.8 29.524,19.37 57.165,45.48 88.923,61.98 -11.488,-30.66 -15.144,-62.84 -24.251,-97.02 -15.382,-57.71 -21.543,-124.03 -21.557,-195.38 -0.009,-40.97 -2.4,-84.26 5.389,-118.57 q 0.673,-12.81 1.347,-25.61 c 11.055,-47.18 13.893,-96.24 28.294,-138.78 2.223,-6.57 11.672,-41.63 10.778,-43.12 z m 1980.562,2.69 c 2.32,20.47 11.68,42.89 17.51,61.99 6.48,21.19 8.09,43.91 13.47,64.67 8.91,34.36 5.43,72.4 13.48,107.8 1.89,8.32 -0.17,20.28 1.35,26.95 v 26.95 c 0,21.73 2.99,49.47 -1.35,68.72 v 25.6 c -7.48,33.13 -4.29,68.46 -12.13,101.06 q -8.76,41.085 -17.51,82.19 c -4.52,14.79 -11.18,31.16 -13.48,47.16 h 1.35 c 10.52,-13.01 30.24,-20.24 44.46,-29.64 11.49,-7.59 22.35,-18.03 33.69,-25.6 18.53,-12.39 37.02,-22.34 55.24,-35.04 69.28,-48.31 140.54,-94.04 210.18,-142.83 34.46,-24.14 68.81,-50.81 105.09,-72.76 v -1.34 c -12.36,-3.97 -21.11,-15.03 -30.99,-21.56 -33.92,-22.46 -66.54,-45.21 -99.7,-67.38 -70.86,-47.36 -140.52,-94.18 -211.53,-141.48 -36.36,-24.22 -71.35,-52.78 -109.13,-75.46 z m -1641.04,405.59 c -4.47,14.77 -26.37,38.88 -35.03,52.55 -26.55,41.91 -52.08,82.79 -79.49,123.96 -3.24,4.87 -8.986,9.76 -12.125,14.82 -2.686,4.34 -2.606,9.22 -5.39,13.48 -6.645,10.17 -17.163,18.37 -21.557,30.99 h 1.348 c 6.321,4.21 14.534,2.84 22.9,5.39 20.11,6.13 45.59,10.67 66.02,16.17 l 20.21,1.35 c 20.53,5.27 45.51,10.8 66.02,16.17 q 10.1,0.675 20.21,1.34 c 24.08,6.22 53.12,15.23 79.49,17.52 v -1.35 c -20.15,-20.14 -30.47,-47.55 -45.81,-72.76 -19.69,-32.35 -35.75,-71.28 -49.85,-109.14 -3.87,-10.4 -3.09,-18.91 -6.74,-29.65 -7.84,-23.08 -15.39,-51.3 -17.51,-79.5 -0.896,-0.45 -1.796,-0.89 -2.696,-1.34 z m 1298.82,1.34 c -0.82,21.02 -8.05,44.48 -13.48,61.99 -4.6,14.83 -4.16,27.7 -9.43,41.77 -13,34.73 -26.17,71.29 -43.11,103.75 -15.48,29.65 -36.95,56.65 -53.89,84.89 h 5.39 c 6.36,-3.81 16.34,-1.81 24.25,-4.04 15.33,-4.33 33.08,-9.5 48.5,-13.48 12.92,-3.33 22.28,-0.73 35.03,-4.04 51.22,-13.3 109.04,-23.28 161.68,-35.03 v -1.35 c -15.94,-16.15 -24.6,-40.44 -37.73,-59.29 -18.51,-26.58 -35.53,-54.61 -53.89,-82.19 -7.01,-10.54 -17.34,-20.44 -24.25,-30.99 -9.99,-15.26 -25.93,-52.78 -39.07,-61.99 z m -1541.335,282.97 c 3.093,13.73 11.274,23.64 16.168,35.03 18.966,44.14 42.595,82.29 67.366,119.93 64.031,97.27 145.531,186.68 239.821,253.32 18.36,12.97 37.64,22.45 56.59,35.03 28,18.58 56.04,32.34 87.57,48.51 13.33,6.83 26.9,16.29 43.12,20.21 v -1.35 c -4.62,-6.5 -2.81,-18.34 -5.39,-26.95 -8.11,-27.02 -9.31,-57.59 -17.52,-86.23 -6.48,-22.65 -11.1,-51.18 -17.51,-74.11 -3.21,-11.5 -1.07,-19.71 -4.04,-30.99 -17.27,-65.54 -29.01,-135.73 -43.12,-203.47 h -2.69 c -9.05,-6.43 -25.94,-4.86 -37.73,-8.08 -22.58,-6.18 -49.55,-11.01 -72.75,-17.52 l -14.82,-1.35 c -38.42,-10.4 -80.08,-13.51 -119.91,-24.25 -57.119,-15.4 -116.116,-25.46 -175.155,-37.73 z m 1783.845,0 c -9.02,5.62 -21.06,3.08 -32.33,6.74 -23.91,7.74 -54.15,8.02 -79.49,16.17 -41.63,13.38 -87.29,18.55 -130.69,29.64 h -13.48 c -53.32,13.01 -111.79,23.81 -165.72,36.38 v 2.7 c -7.83,11.91 -5.35,30.31 -9.43,45.81 -4.78,18.2 -9.67,42.31 -14.82,60.63 q -1.35,11.46 -2.69,22.91 c -10.6,35.08 -13.25,72.96 -22.91,110.49 -15.15,58.9 -25.67,122.13 -39.07,181.91 h 2.7 c 10.93,-9.4 39.22,-17.32 53.89,-24.26 7.53,-3.56 15.86,-10.55 22.9,-14.82 7.97,-4.83 16.49,-5.93 24.25,-10.78 22.74,-14.18 46.09,-28.16 68.72,-43.12 23.96,-15.84 44.73,-37.02 67.36,-53.9 30.99,-23.1 62.95,-50.09 86.23,-80.84 6.86,-9.06 18.88,-15.06 25.6,-24.26 14.44,-19.73 31.75,-37.03 45.81,-56.59 16.75,-23.31 29.9,-47.05 45.81,-71.41 18.46,-28.27 35.26,-57.4 49.85,-90.28 5.94,-13.39 15.96,-27.64 20.21,-43.12 z m -1913.187,638.69 c 25.914,-1.14 51.84,-9.05 74.1,-14.82 15,-3.89 26.378,-1.38 41.767,-5.39 15.417,-4.02 34.861,-8.3 49.851,-12.13 15.149,-3.87 26.827,-1.36 41.767,-5.39 51.68,-13.93 111.07,-20.34 163.03,-33.68 l 21.55,-1.35 c 31.78,-8.23 68.59,-13.23 101.05,-21.56 15.35,-3.94 33.68,-1 44.46,-9.43 -13.79,-3.46 -25.42,-13.48 -36.37,-20.22 -15.97,-9.81 -31.73,-16.73 -47.16,-26.94 -16.08,-10.64 -31.65,-23.87 -47.16,-35.04 -94.21,-67.89 -170.309,-149.84 -237.125,-245.23 -16.333,-23.32 -30.4,-47.51 -45.809,-72.77 -6.711,-11 -16.508,-22.87 -20.21,-36.38 h -1.347 c -0.375,18.91 -7.513,40.88 -12.126,57.94 q -0.674,10.11 -1.347,20.21 c -5.9,22.77 -10.508,48.53 -16.168,71.42 q -0.674,10.11 -1.347,20.21 c -14.428,54.57 -21.459,116.22 -35.031,171.13 -3.217,13.02 -0.615,21.59 -4.042,35.03 -12.823,50.31 -25.585,110.44 -32.333,164.39 z m 1938.787,-534.94 c -20.36,44.98 -49.72,84.18 -76.79,122.62 -60.43,85.81 -133.2,161.19 -218.27,222.33 -14.7,10.56 -29.29,23.59 -44.46,33.69 -15.96,10.62 -31.96,18.16 -48.5,28.29 -13.1,8.02 -27.04,19.86 -43.12,24.26 v 1.34 c 18.55,0.98 39.81,7.67 56.59,12.13 l 20.21,1.35 c 22.3,5.71 49.16,10.25 71.41,16.17 l 18.86,1.35 c 52.61,13.59 116.12,17.59 164.37,33.68 13.97,4.66 28.31,1.65 43.12,5.39 14.6,3.69 33.39,8.3 48.5,12.13 15.07,3.82 25.63,1.59 40.42,5.39 21.95,5.63 45.35,12.82 71.41,13.47 v -2.69 c -6.62,-10.09 -4.54,-33.57 -8.09,-47.16 -6.37,-24.44 -11.13,-54.77 -17.51,-79.5 -3.06,-11.87 -0.98,-19.39 -4.04,-30.99 -18.31,-69.27 -25.4,-145.22 -43.12,-214.25 q -0.675,-10.77 -1.35,-21.56 c -5.61,-22.86 -10.05,-49.88 -16.16,-72.76 q -0.675,-9.435 -1.35,-18.86 c -3.58,-13.95 -8.56,-29.5 -9.43,-45.82 z m -1308.24,43.12 c 1.26,25.42 10.44,50.72 16.17,72.76 q 0.66,9.435 1.34,18.87 c 9.78,35.97 15.86,78.44 25.6,114.53 4.77,17.68 6.52,59.37 14.82,71.42 8.09,-9.7 22.67,-14.7 33.69,-21.56 13.84,-8.62 26.95,-20.83 40.41,-29.65 4.25,-2.77 9.23,-2.63 13.48,-5.39 20.36,-13.22 40.33,-29.78 60.63,-43.12 16.16,-10.61 32.33,-17.55 48.5,-28.29 12.66,-8.41 23.48,-19.94 37.73,-26.95 v -1.35 h -9.44 c -7.96,-4.73 -20.06,-2.52 -29.64,-5.39 -25,-7.5 -52.15,-11.94 -75.45,-21.56 -37.36,-15.42 -78.34,-29.39 -111.82,-49.85 -22.61,-13.82 -43.66,-30.78 -66.02,-44.47 z m 781.44,2.7 c -2.79,0.5 -2.59,0.32 -4.04,1.34 -13.27,4.35 -29.91,21.88 -41.77,29.65 q -7.41,2.685 -14.82,5.39 a 645.929,645.929 0 0 1 -105.09,52.55 c -29.39,11.43 -61.48,16.61 -91.62,25.6 -10.98,3.27 -25.37,-0.28 -33.68,5.39 16.56,9.35 31.61,22.02 47.16,32.34 37.29,24.75 74.3,46.78 111.83,71.41 5.99,3.93 11.56,10.9 17.51,14.82 14.39,9.5 28.87,18.05 43.11,26.95 3.53,2.21 12.94,8.23 14.82,6.74 8.33,-12.55 8.26,-49.98 13.48,-67.37 4.18,-13.96 6.96,-31.97 10.78,-47.16 3.54,-14.14 0.97,-23.88 5.39,-36.38 2.83,-8.03 7.11,-20.06 9.43,-29.65 v -13.47 c 6.14,-24.21 15.22,-50.99 17.51,-78.15 z m -393.41,134.74 c -4.27,5.19 -10.5,5.55 -16.17,9.43 -13.24,9.07 -26.39,21.77 -40.42,29.65 -5.41,3.03 -9.82,3.41 -14.82,6.73 -50.7,33.74 -101.42,68 -153.6,101.06 -13.71,8.69 -26.7,20.99 -40.42,29.65 q -4.71,1.335 -9.43,2.69 c -15.01,9.47 -29.09,23.19 -44.46,32.34 -12.96,7.72 -27.72,13.65 -37.72,24.25 h 1.34 c 6.11,7.85 18.12,8.16 28.3,12.13 17.99,7.02 39.11,15.67 57.93,21.56 10.14,3.17 16.9,2 26.95,5.39 122.49,41.39 328.23,42.18 458.09,8.09 l 17.51,-1.35 c 28.89,-9.32 60.37,-18.22 87.58,-28.3 9.88,-3.66 40.35,-10.52 44.46,-17.52 -25.97,-14.6 -49.26,-34.14 -74.1,-49.85 -60.2,-38.08 -118.07,-76.89 -176.5,-115.88 -25.01,-16.69 -50.6,-31.97 -75.45,-48.51 -10.19,-6.78 -24.97,-12.02 -32.34,-21.56 z m -305.85,324.74 c 19.51,40.19 55.09,78.82 79.5,115.88 46.28,70.3 91.94,138.91 138.77,208.85 21.56,32.2 44.74,63.7 66.02,97.02 6.9,10.81 16.77,20.55 22.9,32.34 l 1.35,-1.35 c 6.9,-6.88 10.45,-16.09 16.17,-24.25 15.07,-21.52 29.51,-43.7 44.46,-66.03 44.79,-66.88 91.08,-133.16 136.08,-200.77 5.76,-8.66 14.21,-17.06 20.21,-25.6 17.81,-25.37 32.16,-51.56 49.85,-76.81 12.36,-17.65 31.59,-36.63 39.07,-57.94 h -1.35 c -8.27,6.07 -21.53,6.11 -32.33,9.44 -26.42,8.12 -54.36,11.09 -83.54,18.86 -22.54,6 -50.16,6.62 -74.1,12.13 q -14.82,0.675 -29.64,1.34 c -24.8,5.43 -55.75,4.04 -84.88,4.05 -13.46,0 -30.55,1.15 -41.77,-1.35 -19.85,-4.43 -37.58,1.6 -56.58,-2.7 -14.72,-3.32 -31.27,-1.58 -47.16,-5.39 -25.84,-6.19 -55.19,-9.32 -79.49,-16.16 -29.29,-8.26 -57.02,-11.44 -83.54,-21.56 z" />
</svg>
