<?xml version="1.0" encoding="UTF-8" standalone="no"?>
<svg
   width="3118"
   height="3118"
   viewBox="0 0 3118 3118"
   version="1.1"
   id="svg7"
   sodipodi:docname="icon.svg"
   inkscape:version="1.1.2 (0a00cf5339, 2022-02-04, custom)"
   inkscape:export-filename="C:\Source\rust\intarot\logo\icon512.png"
   inkscape:export-xdpi="15.763951"
   inkscape:export-ydpi="15.763951"
   xmlns:inkscape="http://www.inkscape.org/namespaces/inkscape"
   xmlns:sodipodi="http://sodipodi.sourceforge.net/DTD/sodipodi-0.dtd"
   xmlns="http://www.w3.org/2000/svg"
   xmlns:svg="http://www.w3.org/2000/svg">
  <sodipodi:namedview
     id="namedview9"
     pagecolor="#ffffff"
     bordercolor="#666666"
     borderopacity="1.0"
     inkscape:pageshadow="2"
     inkscape:pageopacity="0.0"
     inkscape:pagecheckerboard="true"
     showgrid="false"
     inkscape:zoom="0.19253805"
     inkscape:cx="2469.6417"
     inkscape:cy="2368.363"
     inkscape:window-width="2560"
     inkscape:window-height="1369"
     inkscape:window-x="-2568"
     inkscape:window-y="-355"
     inkscape:window-maximized="1"
     inkscape:current-layer="layer1"
     inkscape:object-paths="true"
     inkscape:snap-intersection-paths="true"
     inkscape:snap-smooth-nodes="true"
     inkscape:snap-midpoints="true"
     inkscape:snap-object-midpoints="true"
     inkscape:snap-center="true" />
  <defs
     id="defs4">
    <style
       id="style2">
      .cls-1 {
        fill-rule: evenodd;
      }
    </style>
  </defs>
  <g
     inkscape:groupmode="layer"
     id="layer1"
     inkscape:label="Shape">
    <path
       sodipodi:type="star"
       style="opacity:1;fill:none;stroke:#000000;stroke-width:54.7497;stroke-linecap:round;stroke-linejoin:miter;stroke-miterlimit:4;stroke-dasharray:none"
       id="path3802"
       inkscape:flatsided="false"
       sodipodi:sides="8"
       sodipodi:cx="1560.9192"
       sodipodi:cy="1538.0292"
       sodipodi:r1="1513.7458"
       sodipodi:r2="1026.231"
       sodipodi:arg1="0.79146354"
       sodipodi:arg2="1.18804"
       inkscape:rounded="0"
       inkscape:randomized="0"
       d="M 2624.7872,2614.8817 1944.1947,2490.0008 1551.7378,3051.7472 1158.7903,2482.1914 484.06671,2601.8972 608.94761,1921.3046 47.201184,1528.8478 616.75695,1135.9003 497.05114,461.17669 l 680.59256,124.8809 392.4569,-561.74642 392.9475,569.55576 674.7236,-119.7058 -124.8809,680.59257 561.7464,392.4569 -569.5558,392.9475 z"
       transform="matrix(1.0091656,0,0,0.99999991,-16.22595,20.970964)" />
    <circle
       style="opacity:1;fill:none;stroke:#000000;stroke-width:55;stroke-linecap:round;stroke-linejoin:round;stroke-miterlimit:4;stroke-dasharray:none"
       id="path2989-5"
       cx="1559"
       cy="1559"
       r="1007.5402" />
    <path
       id="path3802-2"
       style="opacity:1;fill:none;stroke:#000000;stroke-width:84.4015;stroke-linecap:round;stroke-linejoin:bevel"
       transform="matrix(0.59812774,-0.26604398,0.26362765,0.59269527,219.90392,1062.6905)"
       d="M 2630.0008,2655.387 1880.693,2449.847 1526.7828,3084.0753 1142.2808,2408.896 443.56137,2607.1108 649.10132,1857.803 14.873033,1503.8927 690.05234,1119.3908 491.83757,420.67135 1241.1453,626.21131 1595.0556,-8.0169816 1979.5575,667.16232 2678.277,468.94755 2472.7371,1218.2553 3106.9653,1572.1656 2431.786,1956.6675 Z M 2436.7333,1931.1572 A 958.54331,967.32903 1.4329812e-5 0 1 1171.3618,2421.8708 958.54331,967.32903 1.4329812e-5 0 1 685.10506,1144.9013 958.54331,967.32903 1.4329812e-5 0 1 1950.4765,654.18767 958.54331,967.32903 1.4329812e-5 0 1 2436.7333,1931.1572 Z" />
  </g>
</svg>
