<svg xmlns="http://www.w3.org/2000/svg" width="3191" height="364" viewBox="0 0 3191 364">
  <defs>
    <style>
      .cls-1 {
        fill-rule: evenodd;
      }
    </style>
  </defs>
  <path id="lettering_1" data-name="lettering 1" class="cls-1" d="M1584.28,1942.22c1.02-8.47,6.46-15.67,9.42-22.38,9.44-21.46,18.03-42.99,27.08-63.61,26.42-60.19,50.58-120.9,76.54-180.24,9.08-20.76,17.19-41.31,25.9-61.25,3.43-7.85,4.56-23.24,14.13-24.74,3.63,15.96,13.74,31.68,20.02,45.94,12.74,28.92,24.19,57.95,36.5,86,32.23,73.4,58.89,148.44,93.02,220.28H1584.28ZM850.7,1602.96h54.165V1954h-2.355c-4.749-13.49-30.8-34.86-40.035-47.12-31.821-42.21-69.473-79.09-101.264-121.33-10.428-13.86-23.5-25.91-34.147-40.05-3.963-5.27-10.446-8.43-12.953-15.32h-1.177v212.04H658.771V1591.18h1.178c27.676,31.89,55.809,63.8,81.247,97.77,14.8,19.76,34.631,36.78,49.454,56.55,13.306,17.74,29.287,33.2,42.39,50.65,5.28,7.03,10.387,16.28,17.662,21.2V1602.96Zm1888.7-3.54c93.01-1.13,145.8,45.94,173.09,110.74,13.02,30.91,17.98,82.98,4.71,118.97-24.36,66.1-72.17,100.3-147.19,116.62-27.9,6.08-67.13-5.99-83.6-12.95-51.76-21.88-84.16-57.53-101.26-114.27-5.29-17.53-10.28-51.02-4.71-74.21q4.11-15.315,8.24-30.63c18.63-45.68,51.76-81.94,96.55-101.31,10.91-4.71,23.5-7.63,35.33-10.6C2726.45,1600.3,2734.8,1602.27,2739.4,1599.42ZM176,1601.78H402.078v53.01H314.944v233.24h87.134v53.01H176v-53.01h84.779V1654.79H176v-53.01Zm989.09,1.18h226.08v53.01h-87.13v286.25h-54.17V1655.97h-84.78v-53.01ZM2184.8,1824.42v117.8h-55.34V1604.14c8.58-2.85,23.49-1.18,34.14-1.18h70.65c3.64,2.17,10.13-.01,15.31,1.18,13.74,3.15,28.01,5.37,40.04,10.6,47.04,20.44,79.84,83.73,51.81,148.43-5.2,11.98-14.74,27.85-24.73,35.33-5.59,4.19-17.82,8.14-20.02,15.32,12.45,12.59,19.83,31.87,29.44,47.12,16.82,26.71,37.21,52.87,51.81,81.28h-63.59c-3.42-11.18-13.86-21.4-20.01-30.63-12.57-18.85-24.27-37.95-36.51-56.54-3.51-5.34-14.66-28.45-18.84-30.63H2184.8Zm956.12-221.46H3367v53.01h-87.13v286.25H3225.7V1655.97h-84.78v-53.01Zm-403.88,49.47c-7.75,4.78-19.98,3.57-28.26,7.07-33.04,13.96-58.04,42.21-69.47,77.75-3.82,11.86-6.45,31.5-3.53,44.76,2.28,10.38.61,18.13,3.53,27.1,12.32,37.8,37.28,61.81,73.01,76.57,14.33,5.92,39.17,12.06,60.05,7.06,47.91-11.47,74.82-37.59,90.66-81.28,4.39-12.1,10.2-36.45,5.89-55.36-2.32-10.21-4.26-21.44-8.24-30.63C2840.78,1679.5,2804.23,1651.98,2737.04,1652.43Zm-552.24,3.54v116.62c51.93,0.73,84.2,4.15,102.44-30.63,4.21-8.02,10.64-22.71,7.07-37.69C2282.09,1653.02,2247.41,1655.11,2184.8,1655.97Zm-453.33,54.19c-1.96,16.27-17.19,42.85-23.55,57.72-17.21,40.17-31.55,80.43-48.28,120.15h142.47v-2.35c-7.78-10.69-9.94-26.25-15.3-38.88-12.79-30.1-25.25-63.08-37.68-93.06C1744.5,1742.59,1739.36,1716.84,1731.47,1710.16Z" transform="translate(-176 -1590)"/>
</svg>
