<svg xmlns="http://www.w3.org/2000/svg" width="3145" height="3148" viewBox="0 0 3145 3148">
  <defs>
    <style>
      .cls-1 {
        fill-rule: evenodd;
      }
    </style>
  </defs>
  <path id="shape_medium_1" data-name="shape medium 1" class="cls-1" d="M2884.33,657.611c-0.45,25.91-9.02,54.77-15.21,77.729-9.66,35.884-10.81,72.7-20.28,106.454q-4.215,27.033-8.45,54.072c-17.64,65.151-23.75,137.594-40.55,202.774l-5.07,37.17c-11.78,45.67-14.84,94.32-27.04,141.94-6.94,27.09-15.33,57.78-16.9,87.87,56.53,34.24,109.36,76.58,163.92,113.21,93.69,62.9,186.91,125.05,278.84,189.25,38.79,27.09,78.41,52.59,116.61,79.42,10.19,7.16,31.55,12.59,33.8,27.03-19.57,5.19-36.7,24.94-52.39,35.49-28.59,19.23-56.57,38.69-84.5,57.45-104.33,70.1-207.21,141.62-310.95,211.22-35.38,23.74-69.89,47.65-104.77,70.97-11.06,7.39-34.04,15.81-38.87,28.72-2.62,6.37,7.48,44.16,10.14,54.08,11.88,44.29,14.13,90.55,25.35,133.49q49,259.35,98.01,518.75c-32.8-1.62-80.65-13.97-111.53-21.97-46.94-12.16-95.51-15-140.27-27.03q-23.655-3.39-47.32-6.76c-50.18-13.02-106.88-19.14-157.16-32.11-21.78-5.61-41.01-4.38-62.53-10.14-43.07-11.51-88.76-13.94-133.51-25.34-10.42-2.66-48.51-13.2-55.77-10.14-13.81,11.27-22.07,32.24-32.11,47.31-20.96,31.49-42.89,62.59-64.21,94.63-67.5,101.4-138.11,202.65-207.87,302.46-25.43,36.4-50.05,73.4-74.36,109.84-6.6,9.9-19.18,37.51-30.41,40.55-5.38-17.54-22.43-32.82-32.11-47.31-24.04-35.97-48.94-71.14-72.67-106.46-67.4-100.31-136.12-199.14-202.8-299.08-25.16-37.71-51.29-74.44-76.04-111.53-7.19-10.77-10.56-29.2-27.04-30.41-14.11,8.81-44.25,6.89-62.53,11.83-51.05,13.78-105.95,16.75-158.86,30.41-65.46,16.91-137.453,23.77-202.791,40.56-28.205,7.24-54.572,5.44-82.808,13.51-35.613,10.19-75.162,12.22-113.226,21.97-24.437,6.26-52.067,13.75-79.428,15.21,1.363-30.62,12.562-76.22,20.279-104.77,11.841-43.79,14.078-89.87,25.35-131.8,6.714-24.97,5.361-47.67,11.829-72.65,16.923-65.38,22.976-137.56,40.559-202.77q2.535-18.585,5.07-37.18c7.114-27.71,8.983-58.28,16.9-87.87,5.9-22.03,12.628-47.27,13.52-72.66-14.266-6.82-26.237-18.54-38.869-27.03-34.307-23.05-68.149-45.9-101.4-69.28-45.6-32.07-92.817-59.35-138.576-91.25-50.3-35.06-101.143-72.46-152.1-106.45-38.855-25.92-76.689-52.24-114.916-77.73-10.98-7.32-42.8-22.67-47.319-33.79,45.435-25.7,87.82-59.82,130.126-89.56,45.593-32.06,92.16-60.33,138.576-91.25,61.161-40.73,121.272-85.88,182.515-126.73,37.756-25.18,74.927-50.32,111.537-76.04,10.916-7.66,30.938-11.62,32.109-28.72-8.409-13.44-5.617-35.69-10.14-52.39-12.351-45.59-14.3-94.83-27.039-141.93-20.751-76.75-26.792-161.66-47.319-238.258-6.681-24.934-5.385-47.594-11.829-72.66-11.019-42.862-13.854-88.528-25.35-133.49-4.789-18.731-10.677-39.264-11.829-60.831,17.034,0.789,35.627,6.227,50.7,10.139,21.348,5.541,42.916,6.514,62.529,11.828C822.935,692.95,874.9,695.563,922.3,708.3c19.649,5.281,36.336,3.212,55.769,8.449,56.152,15.132,119.212,20.931,175.752,35.484,19.15,4.928,34.94,3.515,54.08,8.449,27.57,7.1,58.52,9.026,87.88,16.9,22.03,5.907,47.28,12.627,72.67,13.518q201.075-296.52,402.21-593.1l1.68,1.69c12.42,10.13,19.71,28.682,28.73,42.243,18.26,27.415,36.58,55.272,55.77,82.8,72.46,103.915,143.48,210.608,216.32,314.293,26.67,37.97,52.34,76.828,77.73,114.9,7.54,11.295,15.61,35.727,30.42,38.864,14.04-8.782,36.46-5.379,54.08-10.138,53.76-14.516,111.52-17.7,167.31-32.105,59.27-15.308,125.33-21.435,184.2-37.175,25.14-6.721,47.63-5.383,72.67-11.828,45.68-11.759,94.35-14.825,141.96-27.036C2827.28,667.9,2856.92,661.208,2884.33,657.611ZM1770.66,339.939c-3.88,14.672-17.43,25.924-25.35,37.174-16.19,22.988-32.27,46.479-47.32,69.28-48.07,72.827-95.19,143.825-143.65,216.288-22.61,33.806-52.31,66.4-70.98,103.074h6.76c19.54-14.7,83.33-18.084,113.23-25.346,53.24-12.932,114.82-13.509,180.82-13.518,33.88,0,68.48-1.131,96.33,5.069l42.25,3.38c24.08,5.651,49.84,6.717,74.36,13.518,19.33,5.364,39.9,12.5,60.84,15.207v-3.379c-9.82-7.99-15-21.143-21.97-32.105-15.36-24.145-32.67-48.122-49.01-72.659-44.56-66.888-94.43-132.343-138.58-199.391-18.72-28.429-36.71-55.65-55.77-82.8C1784.94,362.788,1780.12,349.073,1770.66,339.939ZM761.754,759c0.932,20.673,7.272,41.9,11.83,59.141,6.418,24.285,7.654,49.273,13.519,70.97q1.691,16.05,3.38,32.105C806.155,979.15,812.5,1044.77,827.662,1103.7c9.228,35.87,11.614,72.71,20.279,106.46,4.562,17.77,1.024,40.36,10.14,54.07,0.563-.56,1.127-1.13,1.69-1.69,23.023-49.87,58.634-91.4,89.568-133.49,48.627-66.16,113.111-134.016,179.131-182.492,26.5-19.452,53.42-40,81.12-57.451,18.21-11.475,42.25-19.069,57.46-33.795-0.56-.563-1.13-1.127-1.69-1.69-21.38-.36-43.17-7.018-60.84-11.828-21.31-5.8-43.75-6.727-62.53-11.828-17.85-4.85-32.22-1.937-50.7-6.759-27.19-7.1-63.45-14.956-91.25-20.277l-13.523,1.689c-31-7.168-69.374-15-101.4-23.656l-40.558-5.069C820.246,769.354,789.086,761.3,761.754,759Zm2019.5,0c-12.13,7.986-33.23,4.356-49.01,8.449-35.84,9.291-75.03,12.382-113.23,21.967-110.26,27.665-227.61,41.179-339.68,65.9,1.73,1.359.46,0.6,3.38,1.69,11.96,11.275,29.7,16.38,43.94,25.346,30.51,19.206,60.47,41.172,89.57,62.52,8.32,6.107,15.43,15.82,23.66,21.967,79.19,59.175,144.1,136.515,199.41,219.665,15.8,23.76,34.38,47.58,47.32,74.35h1.69c2.4-25.19,9.45-51.64,15.21-74.35,3.68-14.51,1.13-26.06,5.07-40.55,8.52-31.34,14.01-69.83,21.97-101.39,9.79-38.83,12.19-78.589,21.97-114.9q1.68-15.207,3.38-30.416c9.38-31.524,13.82-71.362,21.97-103.074C2780.28,786.753,2783.92,764.5,2781.25,759ZM1733.48,806.309c-6.82,4.006-19.53-.585-28.73,1.69-23.22,5.738-54.7,2.472-79.43,8.449-31.99,7.732-68.31,9.912-99.71,20.277-33.17,10.951-67.17,26-101.4,33.795V873.9h1.69c20.47,20,49.48,31.814,74.36,47.313,21.17,13.181,41.79,30.077,62.53,43.933,35.93,24,72.12,45.315,108.16,69.285,24.78,16.47,50.39,32.03,76.05,49,8.95,5.92,16.47,16.09,28.72,18.59,4.45-5.39,9.03-4.53,15.21-8.45,12.04-7.63,23.67-19.16,35.49-27.04,9.42-6.27,19.5-8.9,28.73-15.21,61.69-42.1,125.01-85.867,187.59-126.728,6.12-4,12.56-4.449,18.59-8.449,12.27-8.15,24.51-21.368,37.18-28.726,9.95-5.784,17.97-7.357,25.34-15.208C2015.21,826.164,1888.95,806.807,1733.48,806.309Zm-351.51,82.8c-18.45,14.148-44.09,18.232-64.22,30.415-38.19,23.109-77.08,45.582-113.23,70.97-128.08,89.958-250.7,237.908-314.33,392.018h8.45c13.6-8.96,34.406-5.67,52.388-10.14,24.356-6.04,51.592-12.3,76.052-18.58h13.52c84.2-20.89,174.87-36.77,260.25-55.76q42.24-204.45,84.5-408.923h-3.38Zm780.75,0c-0.19,18.907,5.79,35.6,10.14,50.692,5.63,19.517,6.94,38.746,11.83,55.762,3.92,13.609,1.44,23.519,5.07,37.179,11.44,42.93,18.27,92.74,30.42,135.18,12.17,42.48,10.07,93.99,27.04,131.8,25.14,2.35,50.75,10.9,72.67,16.89,36.32,9.94,73.8,12.67,108.16,21.97,15.68,4.24,28.61,2.44,43.93,6.76,42.8,12.05,91.66,18.65,133.51,30.41,17.94,5.05,36.04,4.21,52.39,10.14v-3.38c-11.19-12.31-13.15-32.63-21.97-47.31-24.35-40.53-45.51-83.54-72.67-121.66C2466.88,1078.24,2326.63,956.318,2162.72,889.107Zm-716.54,96.315c-1,20.4-7.05,40.408-11.83,57.448-8.3,29.65-7.41,56.59-15.2,86.18-8.02,30.41-19.06,66.62-21.97,99.7h1.69c12.28-11.4,26.16-17.4,42.24-25.35,11.14-5.5,22.71-16.13,33.8-21.97,25.27-13.28,62.6-28.08,89.57-37.17,23.59-7.95,46.73-11.82,69.29-18.59,7.62-2.29,15-.93,20.28-5.07-17.44-5.45-33.22-22.26-47.32-32.1-29.17-20.38-59.65-36.13-89.57-55.76C1496.81,1019.38,1470.37,992.532,1446.18,985.422Zm652.33,0c-10.13,12.056-28.79,18.188-42.25,27.038-34.45,22.64-68.91,48.15-103.09,70.97-13.73,9.17-53.87,26.3-59.15,40.55,25.98-.13,50.49,10.04,70.98,16.9,42.96,14.39,84.1,25.47,119.99,47.31,21.44,13.05,42.91,27.69,64.21,40.56v-5.07c-7.14-10.82-4.58-30.27-8.45-43.94-11.86-41.98-19.48-91.2-30.41-133.49C2105.54,1027.71,2107.66,999,2098.51,985.422ZM1760.52,1191.57c-11.19,6.53-33.85.2-47.32,3.38-35.46,8.36-76.33,12.32-106.47,23.66l-25.35,5.07c-38.94,19.3-82.4,34.69-118.3,57.45-111.44,70.66-185.97,172.11-239.97,300.77-7.38,17.59-6.63,31.93-11.83,52.39-16.07,63.21-27.67,161.71-10.14,234.87,5.83,24.34,3.99,43.83,11.83,65.9,60.96,171.69,158.52,296.84,321.09,366.68,32.06,13.77,66.13,30.62,103.09,40.55,16.19,4.35,31.42,5.1,45.63,8.45q10.98-.84,21.97-1.69c3.79,0.82,12.64,4.06,16.9,5.07h60.83c3.59,0.51,10.86,3.04,16.9,1.69,18.91-4.22,40.84-.18,60.84-5.07,36.9-9.03,74.38-14.38,108.16-27.04,135.86-50.9,252.98-150.2,317.71-272.05,27.64-52.02,43.97-113.37,60.84-175.73,6.07-22.46-.26-46.14,5.07-70.97,3.15-14.71,5.7-46.91,1.69-64.21-2.16-9.31-7.65-21.38-5.07-33.8,3.94-18.96-9.31-71.78-15.21-91.24-17.52-57.76-41.96-114.32-72.67-160.53-76.84-115.61-183.78-188.97-324.47-241.63-36.6-13.7-80.73-11.04-121.68-20.28C1797.7,1189.45,1775.45,1194.47,1760.52,1191.57ZM1224.8,1396.03c-13.34,7.82-48.03,9.04-65.91,13.52-34.58,8.67-71.42,15.18-104.77,23.66-16.07,4.08-61.228,4.9-67.6,15.2,14.993,11.98,22.653,36.52,33.8,52.39,25.75,36.66,50.19,74.42,74.35,113.21,7.68,12.32,20.91,23.92,25.35,38.86h3.38c0.92-22.87,9.1-44.04,15.21-62.52,11.25-33.99,16.68-65.09,32.11-94.62,17.86-34.17,41.76-66.43,59.15-99.7h-5.07Zm1335.06,49c-18.61-.1-34.03-6.16-49.01-10.13q-15.2-1.7-30.42-3.38c-8.13-2.2-20.36-6.71-28.72-8.45q-7.605.84-15.21,1.69c-36.91-8.35-76.84-24.45-118.3-27.04v1.69c13.83,11.33,19.12,31.59,28.73,47.31,21.59,35.34,40.1,76.73,55.77,118.29,10.39,27.57,10.81,58.61,21.97,86.17,13.11-13.36,19.78-31.3,30.42-47.31,23.82-35.86,49.68-72.83,74.35-108.14,9.9-14.17,16.38-35.8,30.42-45.63v-5.07ZM873.291,1423.07c-60.481,136.72-91.852,387.22-42.249,562.68,10.866,38.44,16.172,75.54,32.109,108.15,4.5,9.19,2.776,22.39,11.83,27.03v-1.69c14.341-14.75,22.7-36.21,33.8-54.07,18.774-30.21,42.813-59.96,62.528-89.56,13.069-19.61,21.8-40.02,35.492-59.14,21.39-29.89,39.68-61.79,60.84-92.93,10.72-15.79,28.83-33.51,35.48-52.38-9.39-7.87-13.53-21.48-20.28-32.11-9.61-15.16-20.43-29.92-30.41-45.62-38.3-60.25-81.917-118.91-119.991-179.12-15.24-24.1-29.907-46.62-45.629-69.28C881.66,1437.61,879.6,1429.15,873.291,1423.07Zm1798.109,0c-2.57,8.44-9.35,13.54-13.52,20.27-13.08,21.1-27.06,41.06-40.56,60.83-43.35,63.51-80.98,128.53-123.37,192.64-11.59,17.53-46.56,58.05-50.69,77.72,8,8.68,12.08,20.18,18.59,30.42,14.71,23.17,30.52,45.37,45.62,69.28,33.07,52.34,71.69,103.16,104.78,155.46,14.05,22.2,28.22,43.16,42.25,64.21,6.69,10.04,10.5,23.56,20.28,30.41,1.47-12.95,8.23-20.99,11.83-30.41q1.695-10.14,3.38-20.28c5.35-14.02,13.86-34,18.59-49,16.67-52.94,15.61-113.37,28.73-170.67V1830.3c6.6-30.38,6.82-81.26,0-111.53v-27.03c-9.44-41.18-7.02-88.53-18.59-128.42-7.55-26.02-12.37-55.02-21.97-81.11-6.88-18.68-17.07-38.43-21.97-59.14h-3.38ZM765.134,1482.21c-16.982,16.68-40.207,27.61-60.838,40.55-8.681,5.45-16.973,14.42-25.35,20.28-22.775,15.92-46.562,28.01-69.288,43.93-53.8,37.71-109.46,73.39-163.925,111.53-33.247,23.28-66.229,52.24-103.087,70.97,1.066,2.96.326,1.64,1.69,3.37,18.8,18.28,46.083,28.49,67.6,43.94,69.4,49.83,141.12,97.5,212.934,145.32,6.791,4.52,13.589,12.2,20.279,16.89,24.447,17.15,49.858,30.26,74.358,47.32,14.278,9.93,29.418,26.93,47.319,32.1v-1.69c-12.847-17.1-13.9-60.27-20.28-84.48-15.009-57-18.581-121.46-18.589-192.64,0-32.19-2.6-69.03,3.38-96.31q2.535-29.565,5.07-59.14c8.118-34.74,10.169-70.92,20.279-104.77C759.256,1510.77,769.568,1490.64,765.134,1482.21Zm2016.116,3.38c1.52,23.75,13.8,61.3,20.28,84.49q7.59,52.365,15.21,104.76v21.97c5.28,24.54,3.37,55.65,3.37,84.48,0.03,105.48-19.24,191.81-38.86,275.43h3.38c5.83-7.24,14.2-9.76,21.97-15.21,23.58-16.53,48.51-32.09,72.66-49,71.4-50,143.8-102.04,216.32-150.39,24.75-16.5,48.91-32.31,72.67-49,9.92-6.97,28.43-12.57,33.79-23.65-17.24-5.24-33.53-22.19-47.31-32.11-24.5-17.63-50.24-33.73-74.36-50.69-57.89-40.7-116.94-77.43-175.76-116.59C2864.23,1543.18,2825.08,1507.93,2781.25,1485.59ZM1120.02,1892.82c-11.86,24.11-30.66,46.14-45.63,67.59-11.88,17.03-19.01,35-30.41,52.38-18.93,28.84-42.89,56.38-59.152,87.87,16.592,0.4,32.732,6.48,47.322,10.13,28.02,7.03,52.69,6.04,81.11,13.52,34.66,9.13,73.07,20.39,111.54,23.66v-3.38c-11.36-11.68-16.56-27.85-25.35-42.24-23.69-38.8-42.46-84.07-59.15-130.11C1134.51,1956.25,1128.18,1901.89,1120.02,1892.82Zm1302.96,1.69c0.15,29.33-11.54,59.53-20.28,82.79-25.17,66.99-47.33,115.76-82.81,170.67h16.9c18.05-12.03,45.55-9.13,69.29-15.21,30.43-7.8,64.11-14.85,94.63-21.97,18.79-4.38,45.87-2.6,59.15-11.82-14.65-14.85-21.82-36.48-33.8-54.08-20.35-29.9-44.37-61.08-64.21-91.24C2449.48,1934.85,2441.42,1906.89,2422.98,1894.51ZM890.19,2161.49c3.748,17.58,14.571,31.61,21.97,45.62,7.412,14.03,10.516,27.27,18.589,40.55,17.971,29.57,37.77,58.82,57.458,86.18,103.483,143.79,225.753,243.12,393.763,322.74v-10.14c-10.49-14.71-12.31-67.84-18.59-89.55-20.4-70.52-28.37-148.81-47.32-219.67-6.14-22.93-7.73-73.46-18.59-89.56-11.11-6.95-28.37-4.47-42.25-8.44-25.98-7.43-55.58-10.77-84.5-18.59Q1030.47,2191.065,890.19,2161.49Zm1757.55,1.69c-14.9,9.38-34.4,5.14-54.08,10.14-23.24,5.9-50.82,12.59-74.36,18.58h-13.52c-55.99,13.84-110.67,22.01-165.61,37.18q-10.98.84-21.97,1.69c-21.21,5.44-45.66,13.79-69.29,15.2-2.2,4.09-3.04,4.79-3.38,11.83-7.43,11.2-4.13,27.43-8.45,42.25-7.16,24.53-9.27,52.4-16.9,79.41-12.26,43.44-18.17,93.3-30.42,136.87q-1.68,13.515-3.38,27.04c-8.83,31.6-21.82,78.76-23.66,113.21h3.38c14.14-12.73,46.82-19.57,64.22-30.41,33.52-20.88,69.39-39.61,101.4-62.52,137.9-98.71,255.82-233.1,324.47-400.47h-8.45ZM760.064,2783.31c48.766-4.4,103.368-17.34,148.716-28.72q15.207-1.7,30.419-3.38c52.782-14.29,112.171-20.45,165.611-33.8,38-9.48,77.76-12.46,113.23-21.96,14.99-4.02,34.53-.48,45.63-8.45-31.1-9.61-72.18-44.34-98.02-62.52-90.65-63.79-169.4-139.24-233.211-229.81-19.767-28.05-38.629-55.82-57.458-86.18-5.552-8.95-13.673-17.39-16.9-28.72H854.7c-2.225,41.22-15.58,90.69-25.349,128.42-4.815,18.6-1.887,33.8-6.76,52.38-8.089,30.84-14.41,68.45-21.969,99.7q-0.845,11.82-1.69,23.65C782.378,2645.61,768.927,2717.3,760.064,2783.31ZM2686.61,2283.15c-3.28,12.64-12.43,22.22-18.59,32.1-19.72,31.65-39.82,60.39-60.84,89.56-64.13,89.01-143.08,161.61-233.21,224.74-28.36,19.85-57.08,41.76-89.57,57.45v1.69c25.41,1.27,53.96,9.22,76.05,15.21q16.05,1.68,32.11,3.38c31.09,7.89,70.43,13.61,101.39,21.96q16.9,1.7,33.8,3.38c8.11,2.14,20.39,6.85,28.73,8.45q6.765-.84,13.52-1.69c68.12,15.76,142.89,29.13,214.63,43.93-2.72-27.19-10.71-58.09-16.9-82.79q-0.855-10.995-1.69-21.97c-8.18-31.57-13.58-70.1-21.97-101.39q-0.855-11.82-1.69-23.65c-12.27-49.45-17.37-107.66-32.11-157.15-7.37-24.72-9.31-53.39-15.21-76.04C2691.86,2308.06,2696.13,2288.8,2686.61,2283.15Zm-1291.12,35.48c1.89,21.21,8.73,40.74,13.52,59.14q0.84,10.995,1.69,21.97c7.09,26.28,13.44,58.2,20.27,84.49,4.32,16.59,6.71,69.59,16.9,76.04,7.27-7.36,16.15-9.45,25.35-15.21,9.4-5.88,17.8-15.92,27.04-21.97,5.32-3.48,11.58-3.28,16.9-6.76,43.78-28.58,87.54-61.02,131.82-89.55v-1.69c-29.74-1.24-62.69-13.87-86.19-23.66-37.66-15.69-76.51-25.25-109.85-45.62C1433.72,2344.06,1414.7,2330.24,1395.49,2318.63Zm750.33,1.69c-9.51,12.72-26.48,16.92-40.55,25.35-37.04,22.19-80.16,45.32-125.06,59.14-19.14,5.89-36.51,10.25-54.08,15.21-10,2.82-23.91.67-28.73,8.45h1.69c8.99,8.9,21.28,13.07,32.11,20.27,19.36,12.89,38.89,25.58,59.15,38.87,36.03,23.64,69.74,53.28,109.85,72.66,0.47-25.57,10.56-55.15,16.9-77.73,5.3-18.91,1.23-31.61,6.75-50.69,9.95-34.32,20.68-73.58,25.35-111.53h-3.38Zm-373.48,123.35c-20.24,18.67-54.33,32.71-77.73,49.01-59.68,41.57-122.13,82.88-182.52,123.35-9.26,6.2-19.48,8.91-28.73,15.21-11.61,7.91-23.4,19.67-35.49,27.03-9.11,5.56-20.66,7.19-25.35,16.9,21.52,2.27,44.09,14.47,62.53,21.97,25.47,10.34,55.24,14.45,81.12,21.96q11.835,0.855,23.66,1.69c12.57,3.23,30.36,6.93,43.94,10.14q21.12,0.855,42.25,1.69c51.05,12.52,144.95,12.82,196.03,0q26.19-1.68,52.39-3.38c37.1-9.32,78.51-14.94,111.54-27.03,9.4-3.45,17.69-1.52,27.04-5.07,12.94-4.92,31.47-13.37,43.94-18.59,6.14-2.57,12.3-1.48,16.89-5.07-19.03-10.71-36.03-25.69-54.07-37.17-67.51-42.98-133.17-84.34-199.42-128.42C1838.82,2486.9,1806.63,2461.12,1772.34,2443.67Zm-285.6,336.26c5.32,20.22,23.27,36.65,33.8,52.39,16.54,24.71,32.89,48.68,49.01,72.66,42.83,63.7,82.74,127.83,126.75,190.94,23.66,33.94,56.11,70.6,74.36,108.14,0.56-.56,1.12-1.13,1.68-1.69,17.64-18.93,29.35-44.11,43.94-65.9,27.77-41.44,56.4-82.85,84.5-125.04,22.34-33.53,48.58-66.3,70.98-99.7,14.39-21.45,25.8-43.01,40.56-64.21,14.82-21.28,31.5-41.93,43.94-65.9h-3.38c-6.93,4.83-16.06,3.98-25.35,6.76-25.86,7.76-53.59,9.8-82.81,16.9C1815.93,2836.57,1592.19,2819.99,1486.74,2779.93Z" transform="translate(-199 -198)"/>
</svg>
