<svg xmlns="http://www.w3.org/2000/svg" width="3145" height="3147" viewBox="0 0 3145 3147">
  <defs>
    <style>
      .cls-1 {
        fill-rule: evenodd;
      }
    </style>
  </defs>
  <path id="shape_small_1" data-name="shape small 1" class="cls-1" d="M2882.86,656.633c0,41.659-17,103.75-26.84,141.493-6.13,23.571-3.62,42.292-9.75,65.867-15.83,60.879-23.29,129.544-39.04,190.287q-3.66,26.82-7.32,53.67c-14.19,52.79-17.4,110.1-31.72,165.88-7.27,28.31-16.28,59.51-17.08,92.71,20.69,6.27,37.3,25.11,53.68,36.59,38.25,26.8,77.25,51.74,114.67,78.07,83.53,58.75,168.88,111.51,253.75,168.32,56.02,37.5,109.75,86.05,170.79,117.1-1.54,4.28-.47,2.37-2.44,4.88-12.45,12.55-28.78,19.2-43.92,29.27-32.19,21.42-65.18,43.16-97.59,65.87-96.57,67.67-194.56,136.95-292.79,202.48-38.81,25.89-76.57,52.65-114.67,78.07-13.68,9.12-37.59,15.78-41.48,34.15,10.23,16.31,6.66,42.95,12.2,63.43,14.6,54.03,17.1,111.75,31.72,168.33,21.32,82.53,26.95,171.17,48.8,256.15,17.26,67.15,32.38,141.5,41.47,212.24-30.84-.56-63.46-9.82-90.27-17.08-42.64-11.54-86.66-13.99-126.88-24.39-23.56-6.1-42.38-3.44-65.87-9.76-73.63-19.82-152.85-24.27-229.35-43.91-44.39-11.4-92.68-14.76-139.07-26.84-13.6-3.54-45.5-14.21-56.12-9.76-13.41,10.94-19.18,29.51-29.28,43.92-29.6,42.23-57.66,86.24-87.83,129.29-61.2,87.3-118.8,177.78-180.56,265.91-35.25,50.3-78.66,100.9-107.35,156.13l-2.44-2.44c-11.92-11.86-17.2-27-26.84-41.47-23.5-35.27-48.22-71.71-73.19-107.34-67.64-96.5-137.1-194.71-202.51-292.75-25.95-38.87-52.61-76.7-78.08-114.65-10.23-15.24-11.6-35.64-36.6-36.6-7.59,4.75-16.03,2.08-26.84,4.88-36.21,9.39-75.63,11.88-114.67,21.96-123.96,31.98-259.034,42.44-383.062,75.62-42.624,11.41-86.582,13.64-126.874,24.4-10.454,2.79-36.99,7.59-41.477,4.88-3.895-7.48,5.523-35.27,7.319-48.79A1037.739,1037.739,0,0,1,694.3,2700.96q3.659-25.605,7.319-51.23c17.013-64.72,23.866-138.26,41.478-202.48q2.441-20.73,4.88-41.47c10.836-40.03,12.9-84.25,24.4-126.86,8.8-32.62,18.792-69.41,19.519-107.34-15.987-4.86-26.8-18.22-39.038-26.83-38.179-26.87-77.264-51.75-114.674-78.07-40.924-28.78-83.445-51.77-124.434-80.5-53.927-37.79-108.536-78.01-163.472-114.66-36.354-24.25-71.729-49.43-107.354-73.19-13.328-8.88-37.62-16.43-43.918-31.71,18.357-5.6,32.075-21.66,46.358-31.71,29.915-21.05,60.665-41.22,90.275-60.99,107.516-71.8,212.838-145.86,319.624-217.12,33.9-22.62,66.9-46.19,100.035-68.31,13.993-9.34,36.541-13.44,39.038-34.15-10.479-16.7-6.662-42.06-12.2-63.43-11.664-45.02-14.5-93.76-26.838-141.49-19.07-73.77-24.263-152.937-43.918-229.318-12.62-49.04-16.02-102.018-29.279-153.69-8.813-34.352-17.21-72.842-21.958-109.779,25.819,0.477,53.109,8.517,75.636,14.637,38.574,10.48,78.572,12.56,114.674,21.956,23.581,6.136,42.282,3.668,65.877,9.758,85.7,22.117,177.616,28.231,265.946,51.23,41.6,10.832,85.2,13.194,129.31,24.395,13.4,3.4,44.64,14.816,56.12,9.758,17.48-14.248,25.93-39.756,39.04-58.548,29.58-42.42,58.44-85.409,87.83-129.3,69.72-104.093,141.97-207.246,212.27-312.26,20.06-29.953,44.61-58.928,63.44-90.263,0.81,0.813,1.63,1.626,2.44,2.44,14.2,11.553,21.37,30.8,31.72,46.351,23.12,34.74,46.96,69.367,70.75,104.9,63.95,95.489,133.78,189.712,197.63,285.425,26.01,38.972,51.77,77,78.08,114.658,9.72,13.918,13.17,36.492,34.16,39.033,20.52-12.482,52.77-8.1,78.07-14.637,49.21-12.724,101.96-15.9,153.72-29.275,86.42-22.322,179.55-28.407,268.38-51.23C2747.45,679.681,2817.56,665.222,2882.86,656.633ZM1770.28,400.481c-5.69,18.372-21.65,32.022-31.72,46.352-16.03,22.807-30.89,46.307-46.36,68.307-17.98,25.587-31.37,52.048-48.79,78.065-35.28,52.677-76.55,103.659-109.8,158.569h7.32c19.75-13.868,67.08-10.71,95.16-17.076,97.04-22,293.16-11.534,373.3,17.076-13.25-23.208-31.82-44.206-46.36-65.867-39.87-59.4-79-117.937-119.55-175.647C1819.87,476.668,1799.04,428.084,1770.28,400.481ZM804.089,800.565c2.907,30.644,12.523,62.916,19.519,90.263q2.441,23.174,4.88,46.351c15,55.477,22.235,119.641,36.6,175.651,6.78,26.43,8.386,51.7,14.639,75.62,2.9,11.11-1.092,23.77,7.32,29.28v-4.88c11.714-11.51,17.208-27.72,26.839-41.48,13.731-19.6,29.312-38.81,43.917-58.54,12.993-17.56,33.289-31.5,46.359-48.8,41.69-55.18,99.16-99.043,156.15-139.049,20.57-14.44,39.79-32.032,63.44-43.911v-2.44h-12.2c-11.29-6.814-26.99-3.674-41.48-7.318-28.98-7.289-58.95-9.02-90.27-17.077-61.01-15.69-126.381-20.209-190.315-36.593C863.179,810.9,834.011,802.257,804.089,800.565Zm1929.941,0c-19.56,12.3-64.9,10.262-90.27,17.077-72.42,19.448-155,27.272-226.91,46.351-26.32,6.981-73.23,4-92.72,17.077,0.82,0.813,1.63,1.626,2.44,2.439,31.72,14.549,56.11,39.217,82.96,58.549,60.66,43.677,131.37,106.552,175.67,165.892,18.78,25.16,38.32,50.3,56.12,75.62,3.45,4.92,18.77,32.73,19.51,29.28,7.02-11.08,3.34-26.66,7.32-41.48,8.37-31.14,10.67-65.47,19.52-100.02,12.56-49,15.5-102.161,29.28-153.687,9.48-35.428,20.41-76.539,21.96-117.1h-4.88ZM1721.48,839.6l-97.59,9.758-102.48,21.956c-20.23,6.618-41.41,16.612-63.43,21.955,2.49,1.962.66,0.866,4.88,2.44,18.77,23.286,57.73,36.892,82.95,53.67q80.01,53.223,161.03,107.343c20.19,13.4,45.15,38.73,70.76,43.91,15-19.71,69.55-45.5,92.71-60.99,71.52-47.834,142.64-99.738,217.15-143.933-2.49-1.962-.66-0.866-4.88-2.44-17.7-13.636-44.65-14.23-68.31-21.955C1931.76,844.377,1831.95,840.182,1721.48,839.6Zm-348.9,90.262c-17.01,13.446-39.63,17.791-58.56,29.275-25.64,15.555-53.17,31.308-78.07,48.795-94.84,66.57-174.56,154.02-239.111,251.27-21.666,32.64-52.471,71.23-63.436,112.22h17.079c21.306-14.11,63.928-12.27,92.718-19.52,59.47-14.99,134.73-26.24,187.87-41.47,21.99-6.31,50.99-2.83,68.31-14.64h2.44c0.58-28.08,10.61-56.42,17.08-80.5,10.74-39.92,14.5-80.29,24.4-117.1,15.17-56.38,14.15-116.271,34.16-168.33h-4.88Zm797.84,0q37.815,184.17,75.64,368.37c45.26,4.32,91.75,17.79,134.19,29.27,53.45,14.47,104.66,14.78,158.59,29.28,23.78,6.39,47.97,15.47,75.64,17.08v-4.88c-10.94-11.72-13.33-29.68-21.96-43.91-19.03-31.39-37.34-64.92-58.56-95.15-64.72-92.17-151.93-171.39-246.43-234.192C2253.45,973.076,2213.45,941.38,2170.42,929.86Zm-700.24,109.78q-17.085,81.72-34.16,163.45h2.44c26.19-24.06,90.2-48.37,126.87-60.99,15.84-5.45,32.34-3.05,43.92-12.2-14.78-4.56-24.96-16.63-36.6-24.39C1539.14,1083.15,1505.73,1057.99,1470.18,1039.64Zm605.08,0c-11.6,14.46-33.13,21.23-48.79,31.71-28.6,19.14-56.12,42.44-87.84,58.55v2.44c65.27,3.39,118.65,50.58,170.79,68.31v-4.88Q2092.35,1117.71,2075.26,1039.64Zm-331.82,185.4c-17.4,10.32-47.01,2.02-68.32,7.32-34.56,8.61-69.33,15.95-100.03,29.28-153.77,66.77-255.04,173.28-319.62,329.33-16.19,39.12-31.28,107.2-26.84,153.7,1.16,12.17-1.49,43.37-2.44,51.23-2.67,21.88,8.55,92.49,14.64,112.21,54.01,175.02,158.44,297.49,319.62,365.93,54.68,23.22,109.61,43.86,190.31,43.92q26.835,1.215,53.68,2.44c52.43-12.05,104.55-10.62,148.83-29.28,134.64-56.73,227.11-135.84,300.11-253.71,14.83-23.95,20.14-51.18,31.71-78.07,33.66-78.13,50.77-231.78,19.52-326.89-20.55-62.57-47.97-125.9-82.95-175.65-73.44-104.43-183.88-179.88-322.07-219.56C1854.07,1224.17,1787.31,1233.5,1743.44,1225.04ZM1201.79,1432.4c-20.36,12.71-90.21,18.79-117.12,26.84-13.88,4.15-34.68,1.14-41.47,12.2,14.74,11.76,21.39,32.42,31.72,48.79,16.77,26.59,46.89,53.47,56.11,85.38,1.96-2.49.87-.67,2.44-4.88,9.51-13.81,7.94-34.52,14.64-51.23a841.7,841.7,0,0,1,36.6-78.06C1190.21,1461.07,1204.94,1441.11,1201.79,1432.4Zm1141.86,2.44c3.76,14.81,14.84,27.34,21.96,39.04,12.22,20.08,20.5,46.98,29.28,68.3,7.84,19.06,7.63,47.31,19.52,63.43v-2.44q45.135-68.3,90.27-136.61h-12.2c-9.98-6.75-22.57-3.59-36.59-7.32C2421.24,1450.04,2380.57,1439.87,2343.65,1434.84Zm304.99,21.96c-23.82,41.56-55.21,79.76-80.52,119.54-20.36,32-36.93,64.08-58.56,95.14-16.29,23.4-59.99,74.86-65.87,102.46q102.465,156.12,204.95,312.26c1.96-2.49.86-.67,2.44-4.88,15.23-19.75,16.09-52,24.39-78.06,35.82-112.41,40.87-299.84,9.76-422.04C2676.62,1547.38,2667.09,1477.08,2648.64,1456.8Zm-1754.275,2.44c-4.847,36.03-24.483,77.99-34.159,114.66-26.725,101.28-24.789,280.36,0,380.57,8.592,34.73,13.679,63.67,24.4,92.7,4.638,12.56,3.921,30.24,14.639,36.59,8.768-28.74,35.4-54.38,51.238-78.06,34.023-50.88,63.668-102.72,97.6-153.7,13.94-20.94,50.34-58.77,53.67-85.38-16.74-17.02-25.08-41.05-39.03-60.99-36.83-52.61-72.9-108.48-109.8-161.01C938.89,1524.65,915.285,1467.59,894.365,1459.24Zm-143.953,73.19Q577.2,1650.735,403.95,1769.06v2.44c32.24,9.99,69.844,47.36,97.6,65.87,84.085,56.09,164.946,116.18,251.307,168.33v-9.76c-14.8-21.03-10.434-69.86-17.079-100.02-20.532-93.21-7.715-290.48,19.519-363.49h-4.88Zm2042.178,2.44c7.9,37.29,13.3,80.24,21.96,119.53q1.215,29.28,2.44,58.55c4.92,22.98,8.14,90.58,2.44,117.1q-4.89,47.565-9.76,95.14c-5.68,24.46-13.39,51.69-14.64,78.07h2.44c26.27-25.9,64-42.69,95.15-63.43,49.92-33.24,99.03-71.66,148.84-104.9,18.44-12.32,91.13-52.29,97.59-68.31-27.88-8.68-52.61-35.78-75.64-51.23-62.99-42.28-124.82-82.47-187.87-124.42C2849.93,1573.93,2822.74,1545.15,2792.59,1534.87ZM1131.03,1937.39c-27.17,48.38-64.99,89.66-90.27,139.05,17.1,0.41,32.68,6.14,46.35,9.76,39.13,10.36,76.77,13.59,114.68,21.96v-4.88c-25.99-26.83-42.35-79.89-56.12-117.1C1139.91,1970.6,1140.24,1950.01,1131.03,1937.39Zm1280.94,2.44c-2.66,53.27-47.26,127.96-68.32,168.33h7.32c18.63-11.79,91.8-19.82,117.11-26.84,12.9-3.58,27.09-.74,36.6-7.32-20.48-17.07-31.34-48.05-46.35-70.74-7.47-11.29-19.41-23.01-26.84-34.16C2424.63,1958.83,2423.25,1945.51,2411.97,1939.83ZM1299.38,2244.77q-182.97-37.815-365.977-75.63v4.88c6.068,7.68,6.9,18.1,12.2,26.84,18.789,31.01,35.243,65.31,56.118,95.14,65.55,93.67,148.25,177.86,243.99,241.51,30.55,20.32,89.79,66.93,129.31,73.19v-2.44c-14.07-19.52-11.95-68.21-19.52-95.14-15.7-55.84-20.82-116.8-36.6-175.65C1311.33,2309.23,1301.33,2275.74,1299.38,2244.77Zm1310.22-75.63c-4.26,2.58-10.29.62-17.08,2.44-29.88,8.02-59.12,11.16-92.72,19.52-55.34,13.77-106.42,22.46-161.03,36.59-20.94,5.42-77.1,7.67-90.27,17.08-9.39,6.7-14.74,75.5-19.52,92.7-24.46,87.94-40.09,184.45-58.56,275.67h4.88c9.28-8.66,22.78-10.19,34.16-17.08,32-19.39,66.87-36.98,97.59-58.55,93.08-65.33,177.58-151.78,239.11-248.83,22.69-35.79,56.37-74.94,68.32-119.54h-4.88ZM882.165,2322.83Q841.911,2531.39,801.649,2740h2.44c17.942-10.94,46.034-6.22,68.317-12.2,72.025-19.35,154.374-27.15,226.9-46.35,26.5-7.02,103.27-9.15,117.12-24.4-32.96-16.53-59.49-42.45-87.84-63.43-61.36-45.4-122.86-100.04-168.349-161.01-18.759-25.14-38.464-50.26-56.117-75.62C896.048,2345.38,893.085,2331.43,882.165,2322.83Zm1778.665,2.44c-10.35,20.78-26.3,37.99-39.03,56.11-53.22,75.75-113.94,145.15-187.87,200.05-31.66,23.5-64.86,62.6-104.92,75.62,2.49,1.96.67,0.87,4.88,2.44,25.72,16.31,83.66,12.98,117.12,21.96,52.83,14.17,110.03,17.39,165.91,31.71,38.18,9.79,82.35,22.02,124.43,24.4v-2.44c-4.9-8.03-2.1-18.18-4.88-29.28-7.48-29.87-8.92-59.62-17.08-92.7-15.79-64.04-25.08-136.39-41.48-200.04C2671.33,2387.53,2673.94,2343.37,2660.83,2325.27Zm-553.85,17.08c-37.1,36.48-111.93,50.13-165.91,70.75,11.1,11.05,25.53,15.41,39.04,24.39,31.74,21.11,62.76,48.05,97.59,65.87q10.98-58.545,21.96-117.1C2102.61,2375.2,2111.93,2352.48,2106.98,2342.35Zm-670.96,2.44c1.77,37.01,14.94,80.93,24.4,114.66,4.16,14.85,1.43,33.38,9.76,43.91,10.11-12.39,27.87-17.8,41.47-26.83,25.33-16.84,63.29-52.47,92.72-60.99v-2.44c-45.72-8.66-86.9-28.75-126.88-46.35C1463.4,2360.54,1452.04,2349.43,1436.02,2344.79Zm334.26,97.58c-22.36,21.57-54.69,33.24-80.52,51.23-34.79,24.24-71.21,46.59-107.35,70.75-8.77,5.86-17.82,16.66-26.84,21.95-21.46,12.61-85.83,43.73-95.15,63.43h4.88c23.7,18.35,73.85,22.54,107.35,31.72,107.81,29.52,280.24,31.68,390.38,2.44,35.94-9.55,101.55-15.77,124.43-36.6-73.73-42.16-143.8-91.87-214.71-139.05C1846.27,2490.62,1800.73,2451.35,1770.28,2442.37Zm-234.23,348.86c9.25,29.71,45.71,67.47,63.44,92.7,39.54,56.27,74.14,113.59,112.23,170.77,17.73,26.61,47.36,54.16,58.56,85.38,1.96-2.49.87-.67,2.44-4.88,22.29-16.32,50.69-74.72,68.32-100.02,34.57-49.63,67.22-100.95,102.47-151.25,19.54-27.89,52.13-59.11,63.44-92.7h-2.44c-25.27,16.93-81.68,11.79-117.12,19.51C1770.56,2836.2,1636.12,2804.31,1536.05,2791.23Z" transform="translate(-199 -198)"/>
</svg>
