<?xml version="1.0" ?><!DOCTYPE svg  PUBLIC '-//W3C//DTD SVG 1.1//EN'  'http://www.w3.org/Graphics/SVG/1.1/DTD/svg11.dtd'><svg enable-background="new 0 0 512 512" id="Layer_1" version="1.1" viewBox="0 0 512 512" xml:space="preserve" xmlns="http://www.w3.org/2000/svg" xmlns:xlink="http://www.w3.org/1999/xlink"><circle cx="256" cy="256" fill="#373737" id="ellipse" r="256"/><g id="logo"><path d="M398.2,304.6c-1.9-4.5-6.4-7.7-11.6-9c-1.9-8.4-4.5-12.2-4.5-12.9c0.6-1.3,1.9-1.9,1.9-2.6   c7.7-9,2.6-22.5-10.3-25.8c-7.1-7.1-13.5-10.3-19.3-12.9c-5.2-2.6-3.2-1.3-7.7-3.9c-1.3-6.4-1.9-20.6-3.9-30.9   c-1.9-9-5.8-16.1-10.9-20c-2.6-5.2-5.2-9.7-9-13.5c18-27,22.5-54.1,9.7-68.2c-5.8-6.4-14.2-9-24.5-9c-14.8,0-32.2,5.8-50.2,16.7   c0,0-11.6-9.7-12.2-9.7C195.4,63.8,53.1,238.3,103.3,276.3l12.9,9.7c-8.4,22.5,3.2,49.6,27,57.9c5.2,1.9,10.9,2.6,16.7,2.6   c0,0,38,69.5,118.5,69.5c92.7,0,116.5-90.8,116.5-91.4C394.3,325.2,402,313.6,398.2,304.6z M106.5,264.7   c-9.7-17.4,7.7-52.2,20.6-72.8c30.9-49.6,83.1-88.9,106.9-83.1l6.4-2.6c0,0,17.4,14.8,18,14.8c12.2-7.1,27.7-14.8,41.9-16.1   c-9,1.9-19.3,6.4-32.2,14.2c0,0-30.3,20.6-48.3,38.6c-9.7,9.7-49.6,57.9-49.6,57.3c7.1-13.5,12.2-20.6,23.8-34.8   c6.4-8.4,13.5-16.1,20.6-23.8c3.2-3.2,6.4-6.4,10.3-9.7c2.6-1.9,4.5-4.5,7.1-6.4c1.3-0.6,1.9-1.9,3.2-2.6l0,0l-23.2-19.3l1.3,8.4   l16.7,14.8c0,0-14.8,10.3-22.5,16.7c-30.3,25.8-59.2,65-70.2,103h0.6c-5.2,3.2-10.9,7.7-15.5,14.2   C120.7,276.3,108.4,267.9,106.5,264.7z M156.1,336.2c-18,0-32.2-15.5-32.2-34.1c0-18.7,14.8-34.1,32.2-34.1c4.5,0,9,1.3,12.9,2.6   c0,0,7.1,3.2,9,20l0,0l0,0c1.9-5.2,3.2-9.7,3.2-9.7c2.6,7.1,3.2,14.8,3.2,21.9l0,0l0,0c1.9-2.6,3.9-7.1,3.9-7.1   C192.1,317.5,176.7,336.2,156.1,336.2z M196,215.8L196,215.8c0,0,14.2-26.4,44.4-44.4c-2.6-0.6-7.7,0.6-9,0.6   c5.8-4.5,16.1-7.7,23.2-9.7c-1.9-1.3-7.1-1.9-9.7-1.9c-0.6,0-0.6,0-1.3,0c6.4-3.9,19.3-5.8,30.3-3.9c-1.3-1.9-4.5-3.2-7.1-3.9h-1.3   h0.6c7.1-1.3,14.8,0,21.2,2.6c-0.6-1.9-2.6-3.9-3.9-5.2l-0.6-0.6c6.4,1.3,12.9,4.5,18,7.7c-0.6-1.3-1.9-3.2-3.2-4.5   c6.4,1.9,13.5,6.4,16.7,12.9l0,0v0.6l0,0c-12.2-9-47-6.4-81.8,16.1C217.3,192.6,205,203.5,196,215.8z M385.3,320.7   c-0.6,0.6-4.5,24.5-30.3,44.4c-31.5,25.1-73.4,22.5-89.5,8.4c-8.4-7.7-12.2-19.3-12.2-19.3s-0.6,6.4-1.3,9   c-6.4-10.9-5.8-23.8-5.8-23.8s-3.2,6.4-5.2,9.7c-4.5-12.2-2.6-24.5-2.6-24.5l-3.9,5.8c0,0-1.9-13.5,2.6-24.5   c4.5-12.2,13.5-20.6,15.5-21.9c-6.4-1.9-14.2-8.4-14.2-8.4s3.2,0,5.2,0c0,0-13.5-9.7-16.1-24.5c1.9,2.6,5.8,5.2,5.8,5.2   c-1.3-3.9-1.9-12.2-0.6-21.2l0,0c2.6-16.1,16.1-27,30.9-27c16.1,0,27,3.2,40.6-9c2.6-2.6,5.2-5.2,9-5.8c0.6,0,1.3-0.6,3.9-0.6   c1.9,0,4.5,0.6,6.4,1.9c7.1,4.5,9,16.1,9.7,24.5c3.2,30.9,1.9,25.8,14.2,32.2c5.8,3.2,12.9,5.8,20.6,14.2l0,0l0,0   c6.4,0,9.7,5.2,7.1,9c-21.9,25.8-52.2,38-85.6,39.3c-1.3,0-4.5,0-4.5,0c-13.5,0.6-18,18-9.7,28.3c5.2,6.4,16.1,9,24.5,9l0,0   c36.7,0.6,74-25.1,80.5-39.9l0.6-1.3c-1.3,1.9-37.3,35.4-81.1,34.1c0,0-4.5,0-9-1.3c-5.8-1.3-10.3-3.9-12.2-9.7   c3.9,0.6,8.4,1.3,13.5,1.3c31.5,0,54.1-14.2,52.2-14.8c0,0,0,0-0.6,0c-3.9,0.6-41.9,15.5-65.7,7.7c0-0.6,0-1.3,0.6-1.9   c1.9-7.1,5.8-6.4,12.2-6.4l0,0c21.9-0.6,39.3-6.4,52.8-12.2c14.2-6.4,25.1-15.5,29-20c5.2,8.4,5.2,19.3,5.2,19.3s1.9-0.6,4.5-0.6   C389.8,305.9,391.1,313,385.3,320.7z" fill="#FFFFFF"/><polygon fill="#FFFFFF" points="232.7,120.5 237.2,121.8 233.4,108.9 231.4,115.3  "/><path d="M252,125l-7.1-5.8l2.6,9C248.8,126.9,250.1,126.3,252,125z" fill="#FFFFFF"/><path d="M317.1,240.2c3.9,0,7.1,0.6,10.3,1.9c0-9-5.2-18.7-9-17.4l0,0l0,0l0,0c-2.6,0.6-2.6,4.5-2.6,7.1   C315.8,235.1,315.8,237.6,317.1,240.2z" fill="#FFFFFF"/><path d="M244.3,130.1l-14.8-4.5l9.7,8.4C241.1,132.7,242.4,131.4,244.3,130.1z" fill="#FFFFFF"/><path d="M282.3,253.1c3.2,1.3,5.2,1.9,5.2,1.3c0,0,0-1.3-0.6-1.9c-1.9-2.6-5.2-5.2-8.4-5.8   c-7.1-2.6-15.5-1.3-21.2,3.9c-3.2,2.6-4.5,5.2-3.2,5.2c0.6,0,2.6-0.6,5.2-1.3C269.4,249.9,274.6,249.9,282.3,253.1z" fill="#FFFFFF"/><path d="M282.9,261.5c1.9,0,3.2,0,3.2,0c0.6-1.3-3.9-4.5-10.9-3.9c-0.6,0-1.3,0.6-2.6,0.6H272   c-1.3,0.6-3.2,1.3-4.5,2.6c-1.3,1.3-1.9,2.6-1.3,3.2s1.3,0,3.2-0.6C275.2,261.5,279.1,261.5,282.9,261.5z" fill="#FFFFFF"/><path d="M136.1,304L136.1,304L136.1,304z" fill="#FFFFFF"/><path d="M167.7,290.4c1.9,2.6,1.3,3.9,1.9,4.5c0,0,0.6,0.6,1.3,0c1.3-0.6,1.3-1.9,1.3-3.2l0,0l0,0l0,0   c0-2.6-1.3-5.8-3.2-7.7l0,0l0,0c-2.6-2.6-5.8-5.2-10.3-5.8c-3.9-0.6-7.7,0-8.4,0.6l0,0c-0.6,0-1.3,0-1.9,0.6   c-10.3,3.9-14.8,14.2-12.9,23.8c0.6,2.6,1.9,5.2,3.2,7.1l0,0l0,0l0,0c1.9,2.6,4.5,1.9,3.2,0c0-0.6-1.3-3.2-1.9-7.1   c0-4.5,0.6-9,3.9-12.9c1.9-2.6,4.5-3.9,5.2-3.9l0,0c0.6,0,0.6-0.6,1.3-0.6h0.6c1.3-0.6,0.6,0,1.9-0.6l0,0   C160.6,284,165.7,287.2,167.7,290.4z" fill="#FFFFFF"/><path d="M164.5,298.2c-0.6-0.6-1.3-1.3-1.3-1.9c0-1.3,0-1.9,1.3-2.6c0.6-0.6,1.3-0.6,1.3-1.3c0-0.6-2.6-1.3-5.2,0.6   c-1.9,1.9-1.9,5.8,0.6,8.4c3.2,3.2,7.7,3.9,8.4,7.7c0,0.6,0,1.3,0,1.9s0,1.9,0,1.9c-0.6,3.9-4.5,7.7-10.9,6.4c-1.3,0-1.9,0-1.9,0   c-0.6,0.6,1.9,3.9,7.1,3.2c7.1,0,12.2-7.1,10.9-14.8C174.1,301.4,167,300.1,164.5,298.2z" fill="#FFFFFF"/><ellipse cx="327" cy="254.6" fill="#FFFFFF" rx="3.2" ry="4.5" transform="matrix(-0.9881 -0.1541 0.1541 -0.9881 610.924 556.4988)"/><ellipse cx="311.9" cy="259.7" fill="#FFFFFF" rx="5.2" ry="3.9" transform="matrix(-0.877 -0.4806 0.4806 -0.877 460.5962 637.2515)"/></g></svg>